<svg width="310" height="435" fill="none" xmlns="http://www.w3.org/2000/svg"><rect width="180.47" height="180.775" rx="5" transform="matrix(.86552 .50087 .00003 1 2 130.525)" fill="#E9F0ED"/><path d="M137.903 51.601a34.066 34.066 0 0134.194 0l118.806 68.89c10.58 6.135 17.097 17.472 17.097 29.741v137.78c0 12.27-6.517 23.607-17.097 29.742l-118.806 68.89a34.07 34.07 0 01-34.194 0l-118.806-68.89C8.517 311.619 2 300.282 2 288.012v-137.78c0-12.269 6.517-23.606 17.097-29.741l118.806-68.89z" stroke="#B9C7C2" stroke-width="3"/><path stroke="#B9C7C2" stroke-width="1.5" stroke-dasharray="4 4" d="M155.75 0v78.237m0 278.526V435"/><path fill-rule="evenodd" clip-rule="evenodd" d="M80 219.312v70.313h150V149H80v70.312zm81.885-52.734l8.785 8.789h50.541v105.469H88.79V157.789h64.31l8.785 8.789zm59.326-4.394v4.394h-46.736l-4.387-4.394-4.387-4.395h55.51v4.395z" fill="#2B343D"/><path fill-rule="evenodd" clip-rule="evenodd" d="M109.66 214.918v13.184h17.578v17.578h8.789v-43.946h-8.789v17.578h-8.789v-17.578h-8.789v13.184zm35.156 8.789v21.973h26.368v-43.946h-26.368v21.973zm35.157-8.789v13.184h17.578v17.578h8.789v-43.946h-8.789v17.578h-8.789v-17.578h-8.789v13.184zm-17.578 8.789v13.184h-8.79v-26.368h8.79v13.184z" fill="#EFC22B"/></svg>