<svg width="1920" height="101" fill="none" xmlns="http://www.w3.org/2000/svg"><path d="M25.794 76.206v23.77H-45V.7h69.535v23.77h-42.253v13.983H18.38v22.093h-36.097v15.66h43.512zm39.969-25.029v48.8H38.481V.698h21.266l39.874 50.478V.699h27.282v99.277h-21.686l-39.454-48.8zm145.632 40.549c-7.088 5.966-15.25 8.949-24.484 8.949-6.436 0-12.592-1.118-18.468-3.356-5.876-2.33-11.006-5.686-15.39-10.067s-7.881-9.741-10.493-16.08c-2.612-6.339-3.917-13.563-3.917-21.673 0-6.992 1.305-13.47 3.917-19.436 2.612-6.06 6.203-11.28 10.773-15.66 4.57-4.475 9.934-7.971 16.09-10.488C175.672 1.305 182.388 0 189.57 0c4.477 0 8.767.513 12.871 1.538 4.104.932 7.882 2.377 11.333 4.335 3.544 1.864 6.715 4.148 9.514 6.851a33.644 33.644 0 016.855 8.95l-20.287 15.52c-1.958-3.915-4.896-7.038-8.814-9.369-3.917-2.423-8.068-3.635-12.452-3.635-3.264 0-6.249.652-8.954 1.958a20.918 20.918 0 00-6.995 5.453c-1.959 2.33-3.498 5.127-4.617 8.39-1.12 3.169-1.679 6.665-1.679 10.486 0 3.916.559 7.458 1.679 10.627 1.119 3.17 2.658 5.92 4.617 8.25a22.904 22.904 0 007.275 5.314c2.798 1.211 5.923 1.817 9.374 1.817 7.928 0 14.923-3.262 20.986-9.788h-17.209V47.122h40.854v52.854h-22.526v-8.25zm35.993 8.25V.7h27.282v99.277h-27.282zm71.687-48.799v48.8h-27.282V.698h21.266l39.874 50.478V.699h27.282v99.277h-21.686l-39.454-48.8zm148.99 25.029v23.77h-70.794V.7h69.535v23.77h-42.253v13.983h36.097v22.093h-36.097v15.66h43.512zm83.481 0v23.77h-70.794V.7h69.535v23.77h-42.253v13.983h36.097v22.093h-36.097v15.66h43.512zm12.687 23.77V.7h45.61c4.85 0 9.327 1.026 13.431 3.076 4.104 1.958 7.602 4.568 10.494 7.83 2.984 3.17 5.316 6.852 6.995 11.047 1.679 4.101 2.518 8.25 2.518 12.444 0 5.78-1.259 11.187-3.777 16.22-2.518 4.94-6.016 8.996-10.493 12.165l20.986 36.495h-30.78l-17.489-30.482h-10.213v30.482h-27.282zm27.282-54.253h17.209c1.679 0 3.218-.932 4.617-2.796 1.492-1.865 2.238-4.475 2.238-7.83 0-3.45-.839-6.06-2.518-7.83-1.679-1.865-3.358-2.797-5.037-2.797h-16.509v21.253zm67.129 54.253V.7h27.282v99.277h-27.282zm71.687-48.799v48.8h-27.282V.698h21.266l39.874 50.478V.699h27.282v99.277h-21.686l-39.454-48.8zm145.632 40.549c-7.088 5.966-15.25 8.949-24.484 8.949-6.436 0-12.592-1.118-18.468-3.356-5.876-2.33-11.006-5.686-15.39-10.067s-7.881-9.741-10.493-16.08c-2.612-6.339-3.917-13.563-3.917-21.673 0-6.992 1.305-13.47 3.917-19.436 2.612-6.06 6.203-11.28 10.773-15.66 4.57-4.475 9.934-7.971 16.09-10.488C840.24 1.305 846.956 0 854.138 0c4.477 0 8.767.513 12.871 1.538 4.104.932 7.882 2.377 11.333 4.335 3.544 1.864 6.715 4.148 9.514 6.851a33.644 33.644 0 016.855 8.95l-20.287 15.52c-1.958-3.915-4.896-7.038-8.814-9.369-3.917-2.423-8.068-3.635-12.452-3.635-3.264 0-6.249.652-8.954 1.958a20.932 20.932 0 00-6.996 5.453c-1.958 2.33-3.497 5.127-4.617 8.39-1.119 3.169-1.678 6.665-1.678 10.486 0 3.916.559 7.458 1.678 10.627 1.12 3.17 2.659 5.92 4.617 8.25a22.908 22.908 0 007.276 5.314c2.798 1.211 5.923 1.817 9.374 1.817 7.928 0 14.923-3.262 20.986-9.788h-17.209V47.122h40.854v52.854h-22.526v-8.25zm67.418 8.25V.7h38.195c8.208 0 15.437 1.305 21.684 3.915 6.25 2.61 11.47 6.153 15.67 10.627 4.2 4.475 7.37 9.741 9.52 15.8 2.14 5.966 3.21 12.352 3.21 19.157 0 7.55-1.21 14.402-3.63 20.554-2.34 6.06-5.69 11.28-10.08 15.66-4.38 4.289-9.65 7.645-15.81 10.068-6.153 2.33-13.009 3.496-20.564 3.496h-38.195zm60.579-49.778c0-3.822-.51-7.318-1.54-10.487-1.02-3.17-2.516-5.873-4.475-8.11-1.865-2.237-4.197-3.962-6.995-5.174-2.798-1.305-5.923-1.957-9.374-1.957h-10.913v51.736h10.913c3.544 0 6.716-.653 9.514-1.958 2.798-1.305 5.13-3.123 6.995-5.453 1.955-2.33 3.405-5.08 4.335-8.25 1.03-3.17 1.54-6.619 1.54-10.347zm110.36 26.008v23.77h-70.79V.7h69.54v23.77h-42.26v13.983h36.1v22.093h-36.1v15.66h43.51zM1146.18.7l19.45 65.019 19.16-65.02h28.69l-36.52 99.277h-22.67L1117.36.7h28.82zm145.63 75.506v23.77h-70.8V.7h69.54v23.77h-42.25v13.983h36.09v22.093h-36.09v15.66h43.51zm12.68 23.77V.7h27.29v75.507h45.05v23.77h-72.34zm125.39.839c-7.56 0-14.41-1.445-20.57-4.335-6.16-2.89-11.43-6.665-15.81-11.326a52.458 52.458 0 01-10.21-16.22c-2.43-6.059-3.64-12.304-3.64-18.736 0-6.526 1.26-12.818 3.78-18.877 2.51-6.059 6.01-11.372 10.49-15.94 4.57-4.661 9.93-8.343 16.09-11.046 6.25-2.797 13.06-4.195 20.43-4.195 7.55 0 14.41 1.445 20.56 4.334 6.16 2.89 11.43 6.712 15.81 11.466 4.39 4.754 7.74 10.161 10.08 16.22 2.42 6.06 3.63 12.258 3.63 18.597 0 6.525-1.26 12.818-3.77 18.877a52.018 52.018 0 01-10.5 15.94c-4.47 4.568-9.84 8.25-16.09 11.046-6.15 2.797-12.92 4.195-20.28 4.195zm-22.53-50.338c0 3.356.47 6.619 1.4 9.788.93 3.077 2.33 5.826 4.2 8.25 1.86 2.424 4.19 4.381 6.99 5.873 2.89 1.491 6.3 2.237 10.22 2.237 3.91 0 7.32-.746 10.21-2.237 2.89-1.585 5.22-3.59 6.99-6.013 1.87-2.517 3.22-5.36 4.06-8.53.93-3.169 1.4-6.385 1.4-9.647 0-3.356-.47-6.572-1.4-9.648-.93-3.17-2.38-5.92-4.33-8.25-1.87-2.424-4.25-4.335-7.14-5.733-2.8-1.491-6.11-2.237-9.93-2.237-3.92 0-7.33.746-10.22 2.237-2.8 1.492-5.13 3.496-6.99 6.013-1.87 2.423-3.27 5.22-4.2 8.39a35.932 35.932 0 00-1.26 9.507zm84.74 49.499V.7h42.81c4.85 0 9.33 1.026 13.43 3.076 4.1 1.958 7.6 4.568 10.49 7.83 2.99 3.17 5.32 6.852 7 11.047 1.68 4.101 2.52 8.25 2.52 12.444 0 4.382-.8 8.67-2.38 12.865a36.322 36.322 0 01-6.72 11.046c-2.8 3.17-6.25 5.733-10.35 7.69-4.01 1.865-8.44 2.797-13.29 2.797h-16.23v30.482h-27.28zm27.28-54.253h14.41c1.68 0 3.22-.745 4.62-2.237 1.49-1.585 2.24-4.381 2.24-8.39 0-4.101-.84-6.898-2.52-8.39-1.68-1.49-3.36-2.236-5.04-2.236h-13.71v21.253zm135.02 54.253V47.681l-16.65 36.774h-14.55l-16.65-36.774v52.295h-27.28V.7h29.8l21.4 46.702L1652.01.7h29.66v99.277h-27.28zm115.08-23.77v23.77h-70.8V.7h69.54v23.77h-42.26v13.983h36.1v22.093h-36.1v15.66h43.52zm39.96-25.029v48.8h-27.28V.698h21.27l39.87 50.478V.699h27.28v99.277h-21.68l-39.46-48.8zM1965 24.47h-28.54v75.506h-27.28V24.47h-28.69V.7H1965v23.77z" fill="#fff" fill-opacity=".57"/></svg>