<svg width="180" height="40" fill="none" xmlns="http://www.w3.org/2000/svg"><path d="M65.37 6.646h5.418l.366 4.579h7.297l-.922 5.655h-6.495L68.91 29.89c-.43 2.64.524 3.964 2.866 3.964h2.983l-.923 5.655h-6.523c-4.872 0-6.892-2.538-6.063-7.623l4.12-25.24zM90.026 30.7c.917-5.618 5.578-8.431 13.988-8.431 1.973 0 3.916.183 5.831.542l.348-2.134c.412-2.528-1.259-3.797-4.997-3.797-3.172 0-6.766.45-10.784 1.352l.924-5.664c4.016-.893 7.611-1.343 10.783-1.343 8.628 0 12.435 3.108 11.421 9.315l-1.267 7.764-.089.542-7.859 3.272.623-3.814.106-.647c-1.792-.36-3.735-.543-5.831-.543-3.52 0-5.476 1.168-5.857 3.504-.391 2.392.733 3.64 3.377 3.76l1.205-.016.012-.001c4.779-.063 12.714-.197 19.73-.309 3.644-.058 7.336.041 10.967-.166h.009v-.001c2.669-.15 4.15-1.118 4.444-2.912.304-1.868-.61-2.806-2.724-2.806h-5.258c-5.899 0-8.388-2.796-7.473-8.409.958-5.866 5.741-8.799 14.351-8.799 3.653 0 7.002.528 10.057 1.594l-.959 5.876c-3.025-1.248-6.426-1.868-10.211-1.868-3.965 0-6.097.975-6.417 2.933-.304 1.868.694 2.806 2.997 2.806h4.701c6.447 0 9.22 2.797 8.305 8.4-.943 5.78-5.396 8.713-13.369 8.807v.002c-3.877 0-7.753-.002-11.629-.003l.552-3.39-8.141 3.39-.008.003H99.238c-7.1 0-10.17-2.934-9.212-8.809zm-46.008-4.858l-5.633 4.96-1.407 8.616h-7.353l.055-.334.17-1.046.328-2.01c-2.714 1.128-5.428 2.26-8.141 3.39l-.008.002c-3.956 0-7.915-.014-11.873-.018-.257.012-.515.018-.774.018-7.099 0-10.17-2.933-9.21-8.808.916-5.618 5.576-8.432 13.987-8.432 1.973 0 3.916.184 5.83.542l.348-2.133c.413-2.528-1.258-3.798-4.996-3.798-3.172 0-6.767.451-10.784 1.352l.924-5.664c4.016-.892 7.61-1.342 10.783-1.342 8.628 0 12.434 3.108 11.42 9.315l-.751 4.606-.515 3.157-.09.543-7.858 3.272.623-3.815.105-.647c-1.791-.36-3.734-.543-5.83-.543-3.52 0-5.476 1.168-5.857 3.504-.391 2.392.733 3.64 3.377 3.76l1.204-.016h.012l17.315-.23.093-.003.993-.013L35.224 5.11 43.25.992l-3.375 20.677 12.397-10.534h8.674l-10.968 9.578 9.437 18.705h-8.701l-6.697-13.576zm46.867-24.84l-.921 5.644H82.63l.25-1.536 8.005-4.108zm-1.668 10.223L84.6 39.509h-7.334l4.615-28.284h7.335z" fill="#fff"/><path d="M152.286 12.193h.881l.097 1.255h2.156l-.18 1.107h-1.937l-.727 4.454c-.117.723.144 1.087.789 1.087h.97l-.18 1.107h-1.336c-1.335 0-1.889-.697-1.662-2.09l1.129-6.92zm8.2 1.255c2.264 0 3.22 1.089 2.864 3.272a8.3 8.3 0 01-.233.995h-5.588c-.258 1.587.562 2.381 2.464 2.381.903 0 1.725-.101 2.458-.298l-.181 1.109c-.733.196-1.603.296-2.61.296-2.736 0-3.886-1.322-3.454-3.966.412-2.526 1.839-3.79 4.28-3.79zm-2.771 3.131h4.306c.191-1.36-.379-2.04-1.713-2.04-1.416 0-2.28.68-2.593 2.04zm12.817 4.402a10.1 10.1 0 01-2.158.221c-2.831 0-4.028-1.341-3.59-4.026.406-2.485 2.025-3.728 4.856-3.728a9.14 9.14 0 012.086.221l-.181 1.107a9.67 9.67 0 00-2.164-.221c-1.845 0-2.909.874-3.194 2.62-.318 1.947.445 2.921 2.29 2.921.81 0 1.555-.076 2.236-.223l-.181 1.108zm1.745.221L174 10.643h1.403l-.596 3.648a4.33 4.33 0 012.618-.842c1.987 0 2.824.963 2.51 2.886l-.794 4.869h-1.403l.797-4.89c.189-1.15-.307-1.728-1.485-1.728-.802 0-1.619.328-2.451.982l-.919 5.636h-1.403z" fill="#EFC22B"/></svg>