<svg width="310" height="435" fill="none" xmlns="http://www.w3.org/2000/svg"><path stroke="#B9C7C2" stroke-width="1.5" stroke-dasharray="4 4" d="M155.75 0v78.237"/><rect width="180.47" height="180.775" rx="5" transform="matrix(.86552 .50087 .00003 1 2 130.525)" fill="#E9F0ED"/><path d="M137.903 51.601a34.066 34.066 0 0134.194 0l118.806 68.89c10.58 6.135 17.097 17.472 17.097 29.741v137.78c0 12.27-6.517 23.607-17.097 29.742l-118.806 68.89a34.07 34.07 0 01-34.194 0l-118.806-68.89C8.517 311.619 2 300.282 2 288.012v-137.78c0-12.269 6.517-23.606 17.097-29.741l118.806-68.89z" stroke="#B9C7C2" stroke-width="3"/><path stroke="#B9C7C2" stroke-width="1.5" stroke-dasharray="4 4" d="M155.75 356.763V435"/><path fill-rule="evenodd" clip-rule="evenodd" d="M150.781 146.522c-3.112.816-5.334 2.115-7.785 4.55-3.523 3.501-5.348 8.09-5.052 12.703l.133 2.072-3.606 1.19c-4.237 1.397-10.464 4.4-14.282 6.885-17.283 11.251-28.078 29.894-29.282 50.572l-.195 3.353h8.563l.202-3.21c.843-13.409 6.266-25.766 15.53-35.387 6.769-7.03 15.691-12.403 24.8-14.936l1.762-.489 1.802 1.684c4.302 4.019 10.149 5.548 15.744 4.117 3.223-.824 5.413-2.091 7.885-4.563 2.472-2.472 3.738-4.661 4.563-7.885 1.03-4.026.495-8.404-1.489-12.191-1.213-2.314-4.675-5.777-6.99-6.989-3.775-1.979-8.308-2.522-12.303-1.476zm8.058 8.962c2.985 1.46 4.572 4.093 4.572 7.584 0 3.52-1.584 6.119-4.645 7.622-1.337.656-1.997.796-3.762.796-1.764 0-2.424-.14-3.761-.796-4.574-2.246-6.137-7.927-3.379-12.276 2.277-3.59 7.032-4.859 10.975-2.93zm21.893 18.118c-.966 2.028-1.756 3.75-1.756 3.827 0 .078 1.123.748 2.497 1.491 18.508 10.005 29.956 30.112 29.073 51.067-.166 3.961-1.02 10.211-1.454 10.644-.102.103-.981.348-1.953.545-6.14 1.245-11.567 6.745-12.895 13.068a17.306 17.306 0 001.623 11.647c1.213 2.315 4.675 5.777 6.99 6.99 3.787 1.984 8.165 2.519 12.191 1.489 3.224-.825 5.413-2.091 7.885-4.563 2.472-2.472 3.738-4.662 4.563-7.885 1.834-7.171-1.463-15.059-7.858-18.799-1.887-1.103-1.907-1.128-1.735-2.132 1.041-6.076 1.149-7.309 1.148-13.144-.001-6.769-.412-10.302-1.841-15.838-2.483-9.622-7.231-18.68-13.762-26.254-3.992-4.631-8.159-8.25-13.628-11.837-2.229-1.462-6.816-4.002-7.227-4.002-.058 0-.895 1.659-1.861 3.686zm-46.01 19.644c-3.419 3.475-5.911 6.262-6.501 7.268-2.282 3.892-3.358 8.188-3.092 12.341.217 3.385.773 5.422 2.377 8.714l1.32 2.711 11.02 11.078c11.259 11.318 12.999 12.827 16.443 14.259 4.684 1.949 10.418 2.163 15.056.562 4.065-1.403 5.291-2.305 11.626-8.557l5.85-5.772-9.049-9.055-9.049-9.055-2.098 2.034c-3.607 3.498-4.735 3.299-9.863-1.739-1.936-1.902-3.713-3.825-3.948-4.274-.52-.993-.557-3.028-.072-3.938.196-.367 1.131-1.476 2.079-2.464l1.722-1.796-8.973-8.977c-4.936-4.937-9.048-8.976-9.139-8.976-.091 0-2.66 2.536-5.709 5.636zm9.047 9.811l3.185 3.175-.386.923c-1.256 3.008-1.034 6.975.575 10.276.83 1.702 1.662 2.676 5.63 6.588 4.934 4.864 6.16 5.702 9.308 6.364 2.146.451 3.361.398 5.925-.257l2.248-.575 3.218 3.208 3.218 3.209-1.782 1.824c-3.656 3.741-6.804 5.098-11.193 4.824-2.022-.126-2.805-.328-4.634-1.197-2.08-.987-2.731-1.572-11.878-10.661-5.323-5.29-10.232-10.359-10.909-11.265-3.017-4.041-3.487-9.098-1.257-13.539.765-1.525 4.735-6.073 5.3-6.073.136 0 1.68 1.429 3.432 3.176zm-48.92 38.209c-3.124.818-5.336 2.113-7.773 4.55-2.472 2.472-3.739 4.661-4.563 7.885-1.03 4.026-.496 8.404 1.488 12.19 1.213 2.315 4.675 5.777 6.99 6.99 4.883 2.558 10.697 2.66 15.535.273l1.889-.933 1.963 1.815c12.282 11.362 26.387 17.316 42.483 17.932 10.121.388 20.507-1.762 29.627-6.134 3.375-1.618 8.566-4.649 8.907-5.202.139-.224-2.274-3.981-4.146-6.456l-.465-.614-1.978 1.281c-1.088.704-3.519 2.038-5.402 2.962-20.824 10.225-46.012 6.336-62.702-9.679l-2.488-2.388.435-.841c.749-1.448 1.545-5.098 1.545-7.086 0-2.416-.862-5.806-2.053-8.08-1.213-2.315-4.675-5.777-6.99-6.99-3.775-1.978-8.308-2.521-12.303-1.475zm8.057 8.962c2.985 1.46 4.572 4.093 4.572 7.583 0 2.431-.593 4.057-2.107 5.782-2.322 2.645-6.768 3.458-10.061 1.841-4.574-2.246-6.137-7.927-3.379-12.276 2.277-3.59 7.032-4.86 10.975-2.93zm111.866 0c2.985 1.46 4.572 4.093 4.572 7.583 0 2.431-.592 4.057-2.107 5.782-2.321 2.645-6.768 3.458-10.061 1.841-4.574-2.246-6.137-7.927-3.379-12.276 2.277-3.59 7.032-4.86 10.975-2.93z" fill="#2B343D"/><path fill-rule="evenodd" clip-rule="evenodd" d="M134.722 193.245c-3.419 3.476-5.91 6.262-6.501 7.269-2.282 3.892-3.358 8.188-3.091 12.341.217 3.385.772 5.421 2.376 8.714l1.321 2.711 11.02 11.078c11.259 11.318 12.998 12.826 16.442 14.259 4.685 1.949 10.418 2.163 15.057.562 4.065-1.403 5.29-2.305 11.625-8.557l5.85-5.772-9.049-9.055-9.049-9.055-2.097 2.034c-3.607 3.498-4.736 3.298-9.864-1.739-1.936-1.902-3.712-3.825-3.948-4.274-.52-.993-.557-3.028-.071-3.938.195-.367 1.131-1.476 2.078-2.464l1.723-1.796-8.974-8.977c-4.935-4.937-9.048-8.977-9.139-8.977-.091 0-2.66 2.536-5.709 5.636zm9.047 9.811l3.185 3.176-.385.923c-1.257 3.007-1.035 6.975.574 10.276.83 1.702 1.662 2.676 5.631 6.588 4.934 4.863 6.16 5.701 9.308 6.363 2.145.452 3.361.399 5.924-.256l2.249-.575 3.217 3.208 3.218 3.209-1.782 1.824c-3.655 3.741-6.804 5.098-11.193 4.824-2.021-.126-2.804-.329-4.633-1.197-2.08-.988-2.731-1.572-11.879-10.662-5.323-5.289-10.231-10.358-10.908-11.264-3.018-4.042-3.487-9.098-1.257-13.54.765-1.524 4.735-6.073 5.299-6.073.136 0 1.681 1.43 3.432 3.176z" fill="#EFC22B"/></svg>