<svg width="102" height="139" fill="none" xmlns="http://www.w3.org/2000/svg"><rect width="57.765" height="57.765" rx="5" transform="matrix(.866 .50003 .00003 1 2 41.708)" fill="#E9F0ED"/><path d="M45.525 16.47a10.931 10.931 0 0110.95 0l38.05 22.013A10.978 10.978 0 01100 47.987v44.026a10.98 10.98 0 01-5.475 9.504l-38.05 22.013a10.933 10.933 0 01-10.95 0l-38.05-22.013A10.979 10.979 0 012 92.013V47.987a10.98 10.98 0 015.476-9.504L45.525 16.47z" stroke="#B9C7C2" stroke-width="3"/><path stroke="#B9C7C2" stroke-width="1.5" stroke-dasharray="4 4" d="M51.75 0v25m0 89v25"/><path fill-rule="evenodd" clip-rule="evenodd" d="M49.29 46.034c-.18.021-.73.082-1.22.135-3.098.336-6.529 1.498-9.297 3.148a24.272 24.272 0 00-8.489 8.483c-1.638 2.743-2.726 5.932-3.17 9.29-.152 1.15-.152 4.667 0 5.817.444 3.358 1.532 6.547 3.17 9.29a24.273 24.273 0 008.489 8.483c6.297 3.754 14.161 4.363 21.08 1.631 1.053-.415 3.309-1.557 3.767-1.906.471-.36.73-.986.665-1.612-.098-.95-.74-1.593-1.683-1.686-.474-.047-.558-.016-2.044.74-2.524 1.283-4.65 1.956-7.206 2.28l-.493.062v-1.832c0-2.06-.077-1.87.798-1.983.681-.088 2.47-.563 3.211-.852a16.9 16.9 0 009.647-9.64c.29-.74.765-2.528.853-3.21.112-.873-.077-.797 1.979-.797h1.828l-.06.493c-.337 2.818-1.37 5.733-2.953 8.337-.715 1.175-.793 1.596-.442 2.362.182.398.331.572.645.755.541.313 1.025.394 1.529.253.695-.195 1.084-.667 2.191-2.666 2.47-4.457 3.431-9.908 2.65-15.017-.426-2.78-1.628-6.363-2.387-7.109-.878-.864-2.35-.624-2.933.48-.326.616-.287 1.071.19 2.242.771 1.89 1.24 3.584 1.466 5.303.054.403.097.752.097.774 0 .022-.82.04-1.823.04H67.52l-.05-.258-.207-1.103c-.087-.464-.236-.997-.33-1.184-.557-1.108-2.018-1.346-2.933-.476-.581.552-.672 1.045-.425 2.314.68 3.493-.022 6.93-2.007 9.83-1.466 2.144-3.525 3.777-5.988 4.748-.56.222-2.266.672-2.542.672-.162 0-.173-.175-.2-3.127l-.027-3.126-.252-.38c-.39-.588-.847-.826-1.586-.826-.513 0-.682.043-.998.252-.21.138-.481.413-.604.61-.22.355-.223.38-.25 3.487l-.029 3.13-.441-.064c-2.278-.328-4.875-1.702-6.738-3.563-1.862-1.861-3.237-4.456-3.566-6.733l-.063-.44 3.139-.029 3.139-.028.38-.252c.586-.387.826-.846.826-1.578 0-.731-.24-1.19-.826-1.578l-.38-.251-3.13-.028c-2.953-.027-3.128-.038-3.128-.2 0-.276.45-1.98.672-2.54 1.396-3.533 4.198-6.255 7.713-7.495 2.337-.824 4.587-.96 7.147-.433 1.005.207 1.236.227 1.577.135.513-.138 1.14-.755 1.296-1.276.236-.788-.166-1.792-.861-2.151-.331-.171-1.461-.457-2.192-.555-.875-.118-.798.073-.798-1.977 0-1.003.018-1.824.04-1.824.022 0 .37.044.774.097 1.783.235 3.484.713 5.421 1.522.984.41 1.179.461 1.623.425 1.37-.114 2.12-1.61 1.41-2.817-.23-.392-.366-.496-1.127-.866-1.761-.855-4.137-1.571-6.404-1.93-1.168-.184-4.458-.322-5.305-.222zm23.193.049c-.257.077-2.445 2.225-9.953 9.77l-9.624 9.671-.047-2.063c-.047-2.044-.05-2.066-.3-2.442-.387-.586-.846-.826-1.578-.826-.733 0-1.192.24-1.58.826l-.251.38-.03 2.638c-.032 3.023.04 3.585.607 4.742.475.97 1.504 1.998 2.474 2.472 1.157.567 1.72.639 4.745.606l2.64-.029.38-.252c.587-.387.827-.846.827-1.578 0-.731-.24-1.19-.826-1.578-.375-.248-.407-.252-2.345-.298l-1.964-.047 9.426-9.477c5.184-5.212 9.53-9.624 9.656-9.805.333-.474.331-1.414-.004-1.908a2.041 2.041 0 00-2.253-.802zm-23.38 5.566c0 2.05.076 1.862-.798 1.974-.682.088-2.471.563-3.212.852a16.9 16.9 0 00-9.647 9.64c-.29.74-.765 2.528-.853 3.21-.112.873.076.797-1.975.797-1.004 0-1.825-.014-1.825-.03a64 64 0 01.14-1.01c1.08-7.563 6.49-13.972 13.803-16.351 1.233-.401 3.213-.822 4.202-.894.152-.01.165.133.165 1.812zm-14.615 20.39c.025.09.072.376.105.633.088.682.563 2.47.853 3.21a16.9 16.9 0 009.647 9.64c.74.289 2.53.764 3.212.852.874.112.798-.076.798 1.974 0 1.003-.014 1.823-.03 1.823-.018 0-.472-.062-1.01-.14-8.15-1.162-14.873-7.302-16.8-15.341-.144-.601-.47-2.533-.47-2.784 0-.017.821-.031 1.825-.031 1.657 0 1.828.015 1.87.164z" fill="#2B343D"/><path fill-rule="evenodd" clip-rule="evenodd" d="M72.482 46.083c-.256.077-2.445 2.225-9.953 9.77l-9.625 9.671-.046-2.063c-.047-2.044-.05-2.066-.3-2.442-.387-.586-.846-.826-1.578-.826-.732 0-1.191.24-1.58.826l-.251.38-.03 2.638c-.032 3.023.04 3.585.607 4.742.475.97 1.504 1.998 2.474 2.472 1.157.567 1.72.639 4.745.606l2.64-.029.38-.252c.587-.387.827-.846.827-1.578 0-.731-.24-1.19-.826-1.578-.375-.248-.407-.252-2.345-.298l-1.964-.047 9.426-9.477c5.184-5.212 9.53-9.624 9.657-9.805.332-.474.33-1.414-.005-1.908a2.041 2.041 0 00-2.253-.802z" fill="#EFC22B"/></svg>