<svg width="102" height="139" fill="none" xmlns="http://www.w3.org/2000/svg"><rect width="57.765" height="57.765" rx="5" transform="matrix(.866 .50003 .00003 1 2 41.708)" fill="#E9F0ED"/><path d="M45.525 16.47a10.931 10.931 0 0110.95 0l38.05 22.013A10.978 10.978 0 01100 47.987v44.026a10.98 10.98 0 01-5.475 9.504l-38.05 22.013a10.933 10.933 0 01-10.95 0l-38.05-22.013A10.979 10.979 0 012 92.013V47.987a10.98 10.98 0 015.476-9.504L45.525 16.47z" stroke="#B9C7C2" stroke-width="3"/><path stroke="#B9C7C2" stroke-width="1.5" stroke-dasharray="4 4" d="M51.75 0v25m0 89v25"/><path fill-rule="evenodd" clip-rule="evenodd" d="M49.194 46.124c-3.825.534-7.125 2.739-9.19 6.14-1.449 2.385-2.062 5.45-1.648 8.238.476 3.208 2.058 6.046 4.501 8.075.42.348.45.397.282.458-3.684 1.335-6.385 2.989-9.044 5.538-3.31 3.173-5.612 7.111-6.795 11.625-.247.941-.299 1.314-.3 2.17-.001.889.035 1.135.26 1.78.613 1.759 1.913 3.044 3.674 3.633.656.218.67.219 5.593.219h4.936l.38-.252c.586-.388.826-.847.826-1.579s-.24-1.19-.825-1.578l-.38-.252-4.702-.047c-5.217-.052-4.982-.023-5.574-.697-.288-.328-.487-.84-.488-1.258 0-.12.104-.63.232-1.134 1.877-7.403 7.63-13.183 14.976-15.045.97-.245 2.912-.592 2.954-.527.01.014-.776 3.617-1.745 8.005-.97 4.39-1.79 8.161-1.825 8.383-.038.24-.014.58.058.845.108.39.355.678 2.1 2.446 2.425 2.457 2.608 2.596 3.434 2.596.826 0 1.01-.14 3.431-2.596 2.026-2.055 2.205-2.298 2.2-3 0-.124-.818-3.935-1.815-8.47l-1.814-8.245.572.061c1.972.213 4.434.933 6.391 1.87 3.224 1.545 5.684 3.59 7.873 6.546.832 1.123 1.114 1.33 1.879 1.375.47.028.652-.006.998-.191.847-.453 1.223-1.59.798-2.42-.33-.648-1.74-2.42-2.817-3.546-2.525-2.635-5.642-4.711-8.863-5.904-.495-.184-.934-.364-.975-.401-.04-.038.17-.27.47-.515.299-.246.853-.789 1.23-1.206 4.546-5.023 4.345-12.724-.455-17.525a12.714 12.714 0 00-10.793-3.615zM52.7 49.93c1.807.366 3.32 1.177 4.62 2.478 1.305 1.305 2.107 2.804 2.486 4.651.693 3.367-.831 7.126-3.683 9.087-1.923 1.322-4.352 1.864-6.597 1.473-4.293-.749-7.33-4.193-7.531-8.541-.115-2.458.84-4.87 2.641-6.67 2.152-2.152 5.14-3.07 8.064-2.478zm-.944 34l.824 3.773-.848.848-.848.849-.848-.849-.849-.848.825-3.774c.454-2.075.846-3.774.872-3.774.026 0 .418 1.699.872 3.774zm20.64 1.863c-.466.187-.797.511-1.022 1.001-.201.441-.224.588-.169 1.102.08.742-.054 1.264-.436 1.699-.595.677-.34.646-5.716.698l-4.842.047-.38.252c-.586.388-.827.846-.827 1.578 0 .732.24 1.191.827 1.58l.38.251h5.077c5.07 0 5.077 0 5.733-.22 1.761-.588 3.062-1.873 3.675-3.633.224-.639.261-.896.263-1.78.003-1.133-.103-1.572-.492-2.034-.454-.54-1.434-.796-2.071-.54z" fill="#2B343D"/><path fill-rule="evenodd" clip-rule="evenodd" d="M48.787 72a1402.64 1402.64 0 01-1.67 7.636c-.97 4.39-1.791 8.161-1.826 8.383a2.26 2.26 0 00.059.845c.107.39.354.678 2.1 2.447 2.425 2.456 2.607 2.594 3.433 2.594.826 0 1.01-.138 3.432-2.594 2.026-2.056 2.204-2.299 2.2-3.001-.001-.124-.818-3.935-1.816-8.47L52.975 72h-4.188zm3.793 15.702l-.825-3.774c-.454-2.075-.846-3.774-.872-3.774-.026 0-.418 1.699-.871 3.774l-.825 3.774 1.696 1.696 1.697-1.696z" fill="#EFC22B"/></svg>