<svg width="102" height="139" fill="none" xmlns="http://www.w3.org/2000/svg"><rect width="57.765" height="57.765" rx="5" transform="matrix(.866 .50003 .00003 1 2 41.708)" fill="#E9F0ED"/><path d="M45.525 16.47a10.931 10.931 0 0110.95 0l38.05 22.013A10.978 10.978 0 01100 47.987v44.026a10.98 10.98 0 01-5.475 9.504l-38.05 22.013a10.933 10.933 0 01-10.95 0l-38.05-22.013A10.979 10.979 0 012 92.013V47.987a10.98 10.98 0 015.476-9.504L45.525 16.47z" stroke="#B9C7C2" stroke-width="3"/><path stroke="#B9C7C2" stroke-width="1.5" stroke-dasharray="4 4" d="M51.75 0v25m0 89v25"/><path fill-rule="evenodd" clip-rule="evenodd" d="M68.177 49.111c-1.64.375-3.132 1.56-3.847 3.055-.21.44-.426 1.049-.48 1.355-.07.38-.101 5.379-.101 15.75 0 13.907.013 15.218.154 15.49.282.546 3.85 5.838 4.079 6.048.742.684 1.94.627 2.624-.125.526-.578 4.156-5.815 4.28-6.176.496-1.431-1.004-2.822-2.448-2.27-.526.201-.68.372-1.98 2.216-.602.852-1.126 1.56-1.167 1.575-.04.014-.46-.557-.932-1.27l-.859-1.297V59.206h3.751l.002 7.814c.002 7.405.011 7.833.176 8.189.561 1.214 2.133 1.492 3.024.536.19-.204.392-.535.447-.735.07-.25.1-3.589.1-10.642-.001-11.422.02-11.002-.629-12.296-.42-.837-1.406-1.885-2.182-2.321-1.179-.662-2.789-.919-4.011-.64zm-35.022.105c-1.803.33-3.63 1.474-4.713 2.95-.438.597-.933 1.617-1.193 2.457l-.212.688-.027 14.595c-.024 13.086-.012 14.673.123 15.346.588 2.934 2.726 5.19 5.628 5.934.604.155 1.368.167 10.638.167h9.988l.844-.264c3.041-.953 5.063-3.407 5.39-6.54.124-1.199.124-27.431 0-28.615-.051-.483-.16-1.11-.242-1.394-.726-2.499-2.585-4.362-5.148-5.16l-.844-.263-9.753-.017c-8.072-.015-9.878.005-10.48.116zm36.715 3.613c.461.128.991.6 1.206 1.073.106.233.172.6.173.963l.002.586H67.48l.033-.735c.028-.616.075-.796.29-1.105a2.042 2.042 0 011.089-.79c.352-.107.573-.105.978.008zm-17.157.085a3.792 3.792 0 012.808 2.056l.304.618v29.289l-.244.516a3.885 3.885 0 01-2.85 2.16c-.752.122-18.095.123-18.845 0-1.506-.247-2.768-1.485-3.051-2.994-.131-.695-.131-27.955 0-28.649.275-1.465 1.552-2.75 2.966-2.988.654-.11 18.246-.117 18.912-.008zM35.948 61.03c-.752.205-1.361 1.008-1.363 1.798-.002.623.502 1.388 1.085 1.646.386.17.707.177 7.8.153l7.398-.025.33-.226c.53-.364.77-.793.809-1.451.046-.766-.23-1.305-.87-1.702l-.455-.282-7.135-.018c-5.733-.015-7.225.006-7.6.108zm.277 7.46c-1.856.326-2.231 2.62-.574 3.507l.387.207h14.644l.454-.281c.642-.398.917-.936.87-1.702-.044-.748-.356-1.24-.981-1.548l-.452-.223-6.986-.013c-3.843-.008-7.155.016-7.362.052zm-.573 7.694c-.57.26-1.069 1.03-1.067 1.643 0 .418.213.93.533 1.284.566.627.839.665 4.464.632l3.13-.03.453-.281c.641-.398.917-.936.87-1.702-.037-.636-.281-1.056-.846-1.46-.304-.217-.316-.217-3.728-.24-3.185-.022-3.45-.011-3.81.154z" fill="#2B343D"/><path fill-rule="evenodd" clip-rule="evenodd" d="M35.947 61.032c-.752.204-1.36 1.008-1.363 1.798-.002.623.503 1.388 1.085 1.645.386.171.708.178 7.8.154l7.398-.026.33-.226c.53-.364.77-.792.809-1.45.046-.767-.23-1.305-.87-1.703l-.455-.281-7.134-.019c-5.734-.015-7.226.007-7.6.108zm.277 7.459c-1.856.327-2.231 2.62-.574 3.508l.387.207h14.644l.454-.282c.642-.397.917-.935.871-1.702-.045-.748-.357-1.24-.982-1.548l-.452-.222-6.986-.014c-3.843-.007-7.155.016-7.361.053zm-.573 7.694c-.57.261-1.069 1.03-1.067 1.643.001.419.213.93.533 1.284.566.627.839.666 4.465.632l3.128-.03.454-.28c.641-.398.917-.937.871-1.702-.038-.636-.282-1.056-.847-1.46-.304-.217-.316-.218-3.728-.24-3.185-.022-3.45-.012-3.809.153z" fill="#EFC22B"/></svg>