<svg width="102" height="139" fill="none" xmlns="http://www.w3.org/2000/svg"><rect width="57.765" height="57.765" rx="5" transform="matrix(.866 .50003 .00003 1 2 41.708)" fill="#E9F0ED"/><path d="M45.525 16.47a10.931 10.931 0 0110.95 0l38.05 22.013A10.978 10.978 0 01100 47.987v44.026a10.98 10.98 0 01-5.475 9.504l-38.05 22.013a10.933 10.933 0 01-10.95 0l-38.05-22.013A10.979 10.979 0 012 92.013V47.987a10.98 10.98 0 015.476-9.504L45.525 16.47z" stroke="#B9C7C2" stroke-width="3"/><path stroke="#B9C7C2" stroke-width="1.5" stroke-dasharray="4 4" d="M51.75 0v25m0 89v25"/><path fill-rule="evenodd" clip-rule="evenodd" d="M50.283 46.118c-.816.286-.741.124-4.572 9.917-1.947 4.977-3.568 9.224-3.602 9.438-.11.693.21 1.351.878 1.808.277.189.466.239.912.241.53.002.763-.088 3.827-1.476l3.263-1.479 3.027 1.373c3.373 1.529 3.628 1.632 4.053 1.632.397 0 1.19-.404 1.43-.728.278-.377.436-.933.382-1.341-.045-.332-6.92-17.752-7.304-18.504-.43-.845-1.369-1.205-2.294-.881zm2.484 11.422c.971 2.445 1.758 4.456 1.746 4.469-.01.013-.693-.283-1.515-.658-2-.91-2.02-.91-4.021 0-.822.375-1.508.667-1.525.65-.017-.016.757-2.044 1.72-4.506.964-2.462 1.769-4.46 1.79-4.439.02.02.833 2.038 1.805 4.484zM39.37 53.426c-.72.26-2.884 2.225-4.055 3.68a20.9 20.9 0 00-4.378 9.964l-.159 1.047-1.286.032c-1.212.03-1.309.047-1.667.285-.586.388-.826.847-.826 1.579 0 .731.24 1.19.826 1.578.358.238.455.254 1.678.285.714.017 1.298.046 1.298.063 0 .255.247 1.736.422 2.533 1.25 5.696 5.075 10.687 10.328 13.48 2.012 1.068 4.453 1.847 6.743 2.149.404.053.748.097.766.097.017 0 .045.58.063 1.29.03 1.164.055 1.327.256 1.65.122.197.394.472.603.61.317.21.485.252 1.005.252.52 0 .687-.042 1.004-.252.21-.138.481-.413.604-.61.2-.323.226-.486.255-1.638l.032-1.279 1.047-.158a20.508 20.508 0 005.946-1.84c1.259-.61 1.533-.865 1.735-1.618.217-.812-.19-1.733-.925-2.097-.666-.329-1.24-.248-2.516.353-1.683.793-2.791 1.13-4.99 1.52l-.296.053-.033-1.146c-.038-1.317-.179-1.664-.859-2.114-.316-.21-.485-.252-.998-.252-.74 0-1.196.238-1.585.826-.233.352-.255.468-.285 1.54-.03 1.023-.052 1.156-.188 1.118a7.097 7.097 0 00-.624-.104c-.765-.1-2.215-.49-3.155-.85-5.035-1.92-8.875-6.221-10.171-11.39a16.226 16.226 0 01-.288-1.374 7.123 7.123 0 00-.105-.624c-.037-.137.099-.159 1.165-.188 1.125-.03 1.234-.05 1.588-.285.588-.389.826-.846.826-1.585 0-.513-.042-.682-.252-.998a2.402 2.402 0 00-.61-.603c-.318-.198-.492-.227-1.551-.256l-1.193-.033.053-.296c.397-2.24.745-3.378 1.53-5.008 1.167-2.42 2.483-4.082 4.62-5.835.987-.808 1.262-1.442 1.013-2.331-.281-1.005-1.418-1.58-2.411-1.22zm21.897-.01c-.509.18-.819.47-1.056.989-.439.958-.183 1.687.9 2.566 3.308 2.687 5.468 6.266 6.114 10.131.056.336.122.701.146.812.043.197.016.203-1.152.235-1.063.03-1.237.058-1.555.255a2.402 2.402 0 00-.61.604c-.21.316-.252.485-.252.998 0 .74.238 1.196.826 1.585.354.235.463.255 1.59.285l1.209.033-.05.249c-.026.137-.095.523-.153.859-.25 1.464-.588 2.47-1.417 4.231-.306.65-.582 1.336-.612 1.526-.084.516.138 1.172.527 1.561.73.73 1.86.739 2.601.019.447-.434 1.414-2.431 1.908-3.937.369-1.126.77-2.915.891-3.978l.061-.531 1.292-.032c1.218-.03 1.315-.047 1.673-.285.588-.389.826-.846.826-1.585 0-.513-.043-.682-.252-.998a2.402 2.402 0 00-.61-.603c-.323-.201-.486-.227-1.65-.256-.71-.018-1.29-.05-1.29-.07 0-.217-.322-2.08-.47-2.728-1.026-4.46-3.727-8.642-7.37-11.41-.818-.622-1.386-.766-2.065-.525z" fill="#2B343D"/><path fill-rule="evenodd" clip-rule="evenodd" d="M50.283 46.118c-.816.286-.741.124-4.572 9.917-1.947 4.977-3.568 9.224-3.602 9.438-.11.693.21 1.351.878 1.808.277.189.466.239.912.241.529.002.763-.088 3.827-1.476l3.263-1.479 3.027 1.373c3.373 1.529 3.628 1.632 4.053 1.632.396 0 1.19-.404 1.429-.728.279-.377.437-.933.383-1.341-.045-.332-6.92-17.752-7.304-18.504-.43-.845-1.37-1.205-2.294-.881zm2.484 11.422c.971 2.445 1.758 4.456 1.746 4.469-.011.013-.693-.283-1.515-.658-2-.91-2.02-.91-4.021 0-.822.375-1.508.667-1.525.65-.017-.016.757-2.044 1.72-4.506.964-2.462 1.769-4.46 1.79-4.439.02.02.833 2.038 1.805 4.484z" fill="#EFC22B"/></svg>