<svg width="74" height="100" fill="none" xmlns="http://www.w3.org/2000/svg"><rect width="41.261" height="41.261" rx="5" transform="matrix(.866 .50003 .00003 1 2 29.791)" fill="#E9F0ED"/><path d="M33.089 11.764a7.808 7.808 0 017.822 0L68.09 27.488A7.841 7.841 0 0172 34.276v31.447a7.84 7.84 0 01-3.911 6.788L40.91 88.236a7.809 7.809 0 01-7.822 0L5.91 72.511A7.841 7.841 0 012 65.724V34.276a7.84 7.84 0 013.911-6.788L33.09 11.764z" stroke="#B9C7C2" stroke-width="3"/><path stroke="#B9C7C2" stroke-width="1.5" stroke-dasharray="4 4" d="M37.75 0v17.857m0 63.572v17.857"/><path fill-rule="evenodd" clip-rule="evenodd" d="M35.288 32.191c-3.388.35-6.588 1.639-9.32 3.752-.775.6-2.43 2.255-3.03 3.029-1.1 1.42-2.157 3.314-2.749 4.918-.331.898-.749 2.564-.91 3.633-.194 1.273-.178 3.675.03 4.89.086.5.2 1.081.252 1.293.052.211.113.468.137.57l.042.187.996-.26c.72-.188.993-.288.987-.36a24.92 24.92 0 00-.189-.975c-.544-2.647-.388-5.17.485-7.826 1.317-4.005 4.254-7.351 8.098-9.226 5.34-2.605 11.623-1.99 16.443 1.61.92.687 2.248 1.958 2.83 2.71l.337.435h-2.245v2.096h5.014l.602-2.41c.332-1.325.603-2.45.603-2.5 0-.058-.33-.171-.926-.317-.51-.124-.961-.225-1.005-.224-.044 0-.182.415-.308.92l-.229.92-.383-.448c-1.179-1.375-2.916-2.869-4.416-3.798-.821-.508-2.39-1.27-3.32-1.613-.956-.352-2.373-.71-3.48-.879-1.065-.162-3.356-.23-4.346-.127zm-1.432 7.613v1.329l-.193.077c-.687.277-1.807.883-2.248 1.216-.603.456-.418.488-1.777-.31-.533-.311-.994-.567-1.024-.567-.048 0-3.144 5.326-3.144 5.408 0 .016.506.32 1.124.676l1.124.647-.058.495a13.09 13.09 0 000 2.457l.058.495-1.124.646c-.618.356-1.124.66-1.124.676 0 .082 3.096 5.408 3.144 5.408.03 0 .49-.255 1.024-.568 1.36-.797 1.174-.765 1.777-.309.44.333 1.561.939 2.248 1.216l.193.077v2.658h6.289V58.87l.227-.078c.492-.169 1.721-.842 2.213-1.212.603-.454.418-.487 1.777.31.533.313.993.568 1.023.568.093 0 3.16-5.393 3.099-5.45-.032-.031-.54-.332-1.13-.67l-1.072-.614.059-.493a13.076 13.076 0 000-2.453l-.059-.494 1.072-.614c.59-.337 1.097-.638 1.13-.668.06-.058-3.004-5.452-3.098-5.452-.03 0-.49.256-1.024.568-1.36.797-1.174.765-1.777.31-.492-.37-1.72-1.043-2.213-1.212l-.227-.078v-2.662h-6.29v1.329zm4.192 1.836v1.069l.809.233a8.066 8.066 0 013.617 2.155l.338.347.828-.48c.456-.265.872-.498.926-.519.068-.026.252.23.598.832.276.478.501.886.501.906 0 .02-.392.261-.872.536-.48.274-.889.525-.909.558-.02.032.057.423.172.867.364 1.41.353 2.397-.04 3.87-.096.357-.156.677-.134.712.021.035.431.287.91.562.48.274.873.515.873.535 0 .02-.225.428-.5.906-.348.604-.531.858-.6.832-.053-.02-.47-.255-.923-.52l-.826-.482-.34.348a8.067 8.067 0 01-3.619 2.157l-.809.233v2.138h-2.096v-2.138l-.808-.232c-1.354-.39-2.331-.948-3.359-1.917l-.612-.578-.876.511c-.481.282-.895.512-.92.512-.043 0-1.042-1.696-1.042-1.77 0-.02.392-.26.872-.535s.888-.524.906-.554c.02-.03-.064-.43-.183-.887-.196-.746-.218-.934-.218-1.844s.022-1.098.218-1.844c.12-.457.202-.856.183-.886-.018-.03-.426-.28-.906-.554-.48-.275-.872-.516-.872-.536 0-.074.999-1.77 1.042-1.77.025 0 .439.23.92.512l.876.51.612-.577c1.028-.968 2.005-1.526 3.36-1.916l.807-.233V40.57h2.096v1.069zm-2.13 3.24c-2.396.512-4.159 2.685-4.159 5.123 0 2.453 1.785 4.629 4.208 5.129a5.157 5.157 0 004.731-1.45c.962-.975 1.428-2.018 1.519-3.4.194-2.968-2.268-5.545-5.267-5.513a6.334 6.334 0 00-1.033.11zm17.329.93c-.683.182-.976.29-.97.358.005.053.09.49.19.97.266 1.295.35 2.258.3 3.459-.093 2.288-.585 4.246-1.579 6.288a15.684 15.684 0 01-7.301 7.304c-1.517.737-2.862 1.156-4.616 1.44-.965.155-3.398.175-4.332.035-2.91-.435-5.415-1.482-7.672-3.206-.788-.603-2.14-1.919-2.658-2.588l-.336-.435h2.245V57.34h-5.014l-.602 2.41c-.332 1.325-.603 2.45-.603 2.5 0 .059.33.171.926.317.51.124.961.225 1.005.224.043 0 .182-.415.308-.92l.229-.92.383.448c1.179 1.375 2.916 2.87 4.416 3.798.82.508 2.39 1.27 3.315 1.611.956.352 2.62.764 3.708.919 1.247.176 3.706.174 4.892-.005 1.07-.16 2.736-.579 3.633-.91 1.638-.606 3.629-1.731 5.067-2.863.664-.523 2.22-2.08 2.764-2.766 1.123-1.418 2.262-3.432 2.862-5.06.334-.908.756-2.586.915-3.639.19-1.256.177-3.678-.026-4.856-.14-.818-.404-2.022-.45-2.06-.012-.009-.461.1-1 .244zm-15.604 1.127a2.999 2.999 0 011.561.86c1.802 1.81.82 4.86-1.705 5.293-.991.17-1.97-.15-2.703-.883-1.241-1.24-1.242-3.173-.002-4.408.776-.773 1.8-1.083 2.849-.862z" fill="#EFC22B"/><path fill-rule="evenodd" clip-rule="evenodd" d="M33.856 39.804v1.329l-.192.077c-.687.277-1.808.883-2.248 1.216-.604.456-.418.488-1.778-.31-.532-.312-.993-.567-1.024-.567-.047 0-3.143 5.326-3.143 5.407 0 .017.506.321 1.124.677l1.124.646-.059.495a13.09 13.09 0 000 2.457l.059.495-1.124.647c-.618.355-1.124.66-1.124.676 0 .082 3.096 5.408 3.143 5.408.03 0 .492-.256 1.024-.568 1.36-.797 1.174-.765 1.778-.31.44.333 1.561.94 2.248 1.217l.192.077v2.658h6.289v-2.662l.227-.078c.493-.17 1.722-.842 2.214-1.212.603-.455.418-.487 1.777.31.533.312.993.568 1.022.568.094 0 3.16-5.394 3.1-5.451-.033-.03-.541-.332-1.13-.67l-1.072-.613.058-.493a13.076 13.076 0 000-2.454l-.058-.493 1.072-.614A26.26 26.26 0 0048.484 47c.061-.058-3.003-5.451-3.097-5.451-.03 0-.491.255-1.024.568-1.36.797-1.174.764-1.777.31-.492-.37-1.721-1.043-2.214-1.212l-.227-.078v-2.662h-6.289v1.329zm4.193 1.836v1.069l.809.233a8.066 8.066 0 013.617 2.155l.338.346.828-.48c.455-.264.872-.498.926-.518.067-.026.252.23.598.831.276.479.5.886.5.907 0 .02-.392.26-.871.535-.48.275-.89.526-.91.558-.02.033.058.423.173.868.363 1.41.353 2.397-.04 3.87-.096.356-.156.677-.135.711.022.035.432.288.912.562.48.275.872.516.872.536 0 .02-.225.428-.5.906-.348.603-.531.858-.6.832-.054-.02-.47-.255-.924-.52l-.826-.483-.34.349a8.067 8.067 0 01-3.618 2.157l-.81.233v2.138h-2.094v-2.138l-.808-.233c-1.355-.39-2.332-.948-3.359-1.916l-.612-.578-.876.511c-.482.281-.896.511-.92.511-.044 0-1.042-1.695-1.042-1.769 0-.02.392-.261.872-.536.48-.274.887-.523.906-.553.019-.03-.064-.43-.184-.887-.195-.747-.218-.934-.218-1.844s.023-1.098.218-1.845c.12-.457.203-.855.184-.886-.019-.03-.427-.28-.906-.554-.48-.274-.872-.515-.872-.535 0-.074.998-1.77 1.042-1.77.024 0 .438.23.92.512l.876.51.612-.577c1.027-.969 2.005-1.526 3.36-1.917l.806-.233V40.57h2.097v1.07zm-2.13 3.239c-2.396.513-4.16 2.685-4.16 5.124 0 2.452 1.786 4.629 4.208 5.129a5.157 5.157 0 004.732-1.45c.962-.975 1.428-2.019 1.518-3.401.194-2.967-2.267-5.544-5.266-5.512-.3.003-.764.052-1.033.11zm1.725 2.058a2.999 2.999 0 011.561.86c1.802 1.81.82 4.86-1.705 5.293-.992.17-1.97-.15-2.704-.883-1.24-1.241-1.242-3.173-.002-4.408.777-.773 1.8-1.083 2.85-.862z" fill="#2B343D"/></svg>