<svg width="74" height="100" fill="none" xmlns="http://www.w3.org/2000/svg"><rect width="41.261" height="41.261" rx="5" transform="matrix(.866 .50003 .00003 1 2 29.791)" fill="#E9F0ED"/><path d="M33.089 11.764a7.808 7.808 0 017.822 0L68.09 27.488A7.841 7.841 0 0172 34.276v31.447a7.84 7.84 0 01-3.911 6.788L40.91 88.236a7.809 7.809 0 01-7.822 0L5.91 72.511A7.841 7.841 0 012 65.724V34.276a7.84 7.84 0 013.911-6.788L33.09 11.764z" stroke="#B9C7C2" stroke-width="3"/><path stroke="#B9C7C2" stroke-width="1.5" stroke-dasharray="4 4" d="M37.75 0v17.857m0 63.572v17.857"/><path fill-rule="evenodd" clip-rule="evenodd" d="M32.66 32.163l-.764.104c-.306.04-.868.152-1.25.249-4.782 1.206-8.438 5.117-9.277 9.923-.283 1.617-.234 3.661.122 5.083l.11.438-1.261 2.178c-.694 1.198-1.232 2.196-1.196 2.218.036.023.974.7 2.085 1.507l2.02 1.466v3.053l.002 3.054h4.236v6.42h14.581v-2.672c0-2.692.055-3.877.248-5.354.316-2.419.954-4.97 1.917-7.66l.43-1.204h2.233l.89.898.891.897-.112.332c-.385 1.139.545 1.707 1.397 2.56 1.8 1.802 3.652.66 4.082-1.865.115-.67.538-.51.202-1.154a3.112 3.112 0 00-3.744-1.489l-.33.113-1.189-1.193-1.188-1.192H46.66c-1.048 0-1.133-.01-1.1-.123.019-.067.113-.39.21-.718a9.16 9.16 0 00.224-.925l.049-.328h2.52l.166.366c.205.45.889 1.143 1.349 1.37.987.483 1.93.47 2.907-.041 1.151-.602 1.816-1.948 1.597-3.233-.167-.978-.76-1.813-1.597-2.251-.974-.51-1.916-.524-2.913-.043-.448.216-1.137.92-1.343 1.371l-.167.367h-2.306l-.045-.68a25.67 25.67 0 00-.09-1.048l-.044-.366h1.72l1.187-1.193 1.189-1.193.33.113c1.818.62 3.75-.547 4.077-2.463.221-1.296-2.699 2.405-4.508.963-1.248-.66.638-4.153-.355-3.158-.852.852-1.536 1.572-1.151 2.71l.112.333-.892.899-.891.899-.686-.02-.686-.019-.326-.768c-1.657-3.9-5.197-6.677-9.447-7.409-.574-.099-2.672-.182-3.09-.122zm3.124 2.264c1.368.29 2.555.79 3.747 1.583.916.61 2.21 1.904 2.808 2.808.377.57.91 1.532.91 1.642 0 .02-2.486.037-5.524.037-6.005 0-6.077.004-7.006.397-1.236.523-2.356 1.647-2.844 2.853-.49 1.213-.502 2.688-.032 3.896.468 1.2 1.55 2.328 2.76 2.876.929.42.68.403 6.49.43 4.996.022 5.335.03 5.3.142-.02.066-.212.638-.427 1.271-.929 2.733-1.486 5.18-1.812 7.957-.067.572-.126 1.827-.149 3.193l-.038 2.251H29.57v-6.421h-4.236v-5.078l-1.7-1.234c-.934-.679-1.716-1.261-1.736-1.294-.02-.034.411-.838.96-1.787l.997-1.727-.134-.425c-.544-1.73-.601-3.788-.159-5.664.963-4.08 4.434-7.2 8.69-7.814.948-.137 2.617-.086 3.532.108zm-2.45 8.242c1.61.344 2.703 1.948 2.428 3.561a3.125 3.125 0 01-4.445 2.315c-.512-.242-1.18-.915-1.422-1.429-.579-1.236-.342-2.636.607-3.586.772-.773 1.79-1.083 2.831-.86zm10.634.081c.058.233.182 1.368.183 1.673v.262H37.78l-.045-.237c-.067-.36-.37-1.069-.635-1.485l-.237-.372h7.066l.04.16zm-12.315 2.982v1.047h2.083v-2.094h-2.083v1.047zm20.498-1.685c.305.173 1.082 1.862 1.082 2.183 0 .506-1.393 1.064-1.894 1.064-.533 0-1.377-1.029-1.377-1.562 0-.336.002-1.258.295-1.414.339-.18 1.57-.453 1.894-.27zm-8.208 2.75c0 .09-.323 1.168-.47 1.57l-.186.506h-6.425l.237-.373c.265-.416.568-1.125.636-1.485l.044-.236h3.082c1.695 0 3.082.008 3.082.018zm8.208 5.565c.3.155 1.082.826 1.082 1.155 0 .52-1.206 1.637-1.727 1.637-.323 0-.752-.271-.904-.572-.257-.506-.836-1.649-.345-1.948.328-.2 1.548-.449 1.894-.272z" fill="#2B343D"/><path fill-rule="evenodd" clip-rule="evenodd" d="M32.67 47.51a1.84 1.84 0 100-3.68 1.84 1.84 0 000 3.68zm0 3.571a5.411 5.411 0 100-10.822 5.411 5.411 0 000 10.822zm18.94-12.424a1.104 1.104 0 100-2.207 1.104 1.104 0 000 2.207zm0 2.143a3.247 3.247 0 100-6.493 3.247 3.247 0 000 6.493zm0 5.975a1.104 1.104 0 100-2.208 1.104 1.104 0 000 2.208zm0 2.142a3.247 3.247 0 100-6.493 3.247 3.247 0 000 6.493zm0 5.975a1.104 1.104 0 100-2.208 1.104 1.104 0 000 2.208zm0 2.142a3.247 3.247 0 100-6.493 3.247 3.247 0 000 6.494z" fill="#EFC22B"/></svg>