<svg width="74" height="100" fill="none" xmlns="http://www.w3.org/2000/svg"><rect width="41.261" height="41.261" rx="5" transform="matrix(.866 .50003 .00003 1 2 29.791)" fill="#E9F0ED"/><path d="M33.089 11.764a7.808 7.808 0 017.822 0L68.09 27.488A7.841 7.841 0 0172 34.276v31.447a7.84 7.84 0 01-3.911 6.788L40.91 88.236a7.809 7.809 0 01-7.822 0L5.91 72.511A7.841 7.841 0 012 65.724V34.276a7.84 7.84 0 013.911-6.788L33.09 11.764z" stroke="#B9C7C2" stroke-width="3"/><path stroke="#B9C7C2" stroke-width="1.5" stroke-dasharray="4 4" d="M37.75 0v17.857m0 63.572v17.857"/><path fill-rule="evenodd" clip-rule="evenodd" d="M19.857 33.86v1.005h2.009v4.085h-2.009v2.009h2.009v4.018h-2.009v2.009h2.009v4.018h-2.009v2.009h2.009v4.018h-2.009v2.009h2.009v4.084h-2.009v2.009h2.009v2.009h2.009v-2.009h4.085v2.009h2.009v-2.009h4.018v2.009h2.009v-2.009h4.018v2.009h2.009v-2.009h4.018v2.009h2.008v-2.009h4.085v2.009h2.009v-4.018H23.875V32.856h-4.018v1.005zm15.419 3.18c-.466.132-.77.292-1.28.674-2.466 1.855-5.006 8.263-7.3 18.419-.27 1.19-1.013 4.826-1.013 4.952 0 .017 5.982.03 13.293.03 7.31 0 13.292-.008 13.292-.017 0-.01-.104-.56-.23-1.222-1.195-6.24-2.83-12.31-4.355-16.171-.488-1.236-1.376-3.073-1.86-3.85-2.004-3.213-4.24-3.782-6.371-1.622l-.462.468-.335-.383c-.41-.467-1.137-.988-1.646-1.18-.489-.185-1.268-.228-1.733-.098zm1.094 2.009c.272.113 1.002.792 1.272 1.18l.182.265-.54 1.12c-1.24 2.57-2.489 6.306-3.665 10.963-.425 1.68-1.035 4.37-1.311 5.776l-.148.753h-4.05l.229-1.088c.992-4.713 2.315-9.498 3.496-12.647 1.129-3.007 2.117-4.846 3.123-5.812.615-.591.94-.708 1.413-.51zm6.095.038c.4.194 1.14 1 1.6 1.743.831 1.34 1.817 3.611 2.642 6.089.991 2.972 2.118 7.257 2.88 10.949.114.552.223 1.057.243 1.121.034.11-.09.117-1.968.117h-2.004l-.148-.753c-1.3-6.61-3.269-13.222-5.007-16.806l-.51-1.052.183-.264c.262-.377.995-1.065 1.257-1.18.306-.132.5-.124.832.036zm-3.019 4.534c1.439 3.41 2.976 8.735 4.114 14.247.114.552.224 1.057.243 1.121.035.111-.224.117-4.794.117-4.57 0-4.828-.006-4.794-.117.02-.064.13-.569.243-1.121.96-4.654 2.42-9.927 3.579-12.925.452-1.17.917-2.243.973-2.243.026 0 .223.415.436.921z" fill="#2B343D"/><path d="M32.749 61.11c.258.002.481.003 1.248.003v.003h2.066v-.001l-2.066-.002c.007-.021.048-.325.103-.742l.006-.047v-.004c.112-.839.278-2.09.353-2.452.96-4.654 2.42-9.926 3.578-12.924.453-1.171 2.1-4.449 2.157-4.449l.42.866h.01c-.196-.445-.407-.866-.43-.866l.183-.264c.261-.377.995-1.065 1.257-1.179.306-.133.5-.124.831.036.4.193 1.14.999 1.6 1.742.832 1.34 1.817 3.612 2.643 6.09.99 2.972 2.117 7.256 2.88 10.948l.036.18.047.237.251 1.282.004.02.012.065.008.038.232 1.184.037.182.007.035a.219.219 0 00.004.017h-.033v.008h.037a.048.048 0 01-.004-.008c1.293-.003 2.043-.006 2.043-.01 0-.01-.104-.56-.231-1.222-1.195-6.239-2.83-12.309-4.354-16.171-.488-1.236-1.376-3.072-1.861-3.85-2.004-3.213-4.239-3.782-6.37-1.622l-.462.468-1.706 2.913c-1.24 2.57-2.489 6.306-3.666 10.964a136.26 136.26 0 00-1.31 5.775l-.412 2.755.852.003z" fill="#EFC22B"/></svg>