<svg width="74" height="100" fill="none" xmlns="http://www.w3.org/2000/svg"><rect width="41.261" height="41.261" rx="5" transform="matrix(.866 .50003 .00003 1 2 29.791)" fill="#E9F0ED"/><path d="M33.089 11.764a7.808 7.808 0 017.822 0L68.09 27.488A7.841 7.841 0 0172 34.276v31.447a7.84 7.84 0 01-3.911 6.788L40.91 88.236a7.809 7.809 0 01-7.822 0L5.91 72.511A7.841 7.841 0 012 65.724V34.276a7.84 7.84 0 013.911-6.788L33.09 11.764z" stroke="#B9C7C2" stroke-width="3"/><path stroke="#B9C7C2" stroke-width="1.5" stroke-dasharray="4 4" d="M37.75 0v17.857m0 63.572v17.857"/><path fill-rule="evenodd" clip-rule="evenodd" d="M19.857 37.95v5.095h6.094v2.011h-2.009v2.01h12.054v1.005c0 .988-.003 1.004-.15 1.032-.084.016-.498.063-.922.105-2.67.267-4.562 1.205-4.89 2.425-.044.162-.061 2.504-.05 6.64l.018 6.389.144.268c.548 1.02 2.035 1.723 4.41 2.084 1.11.169 3.746.171 4.873.005 2.37-.35 3.876-1.061 4.424-2.087l.145-.27.018-6.39c.012-4.135-.006-6.477-.05-6.64-.245-.912-1.368-1.677-3.113-2.12-.672-.17-1.946-.368-2.376-.368-.485 0-.472.03-.472-1.08v-.998h12.053v-2.01H48.05v-2.011h6.094V32.856h-14.13v10.189h6.026v2.011H27.96v-2.011h6.026V32.856h-14.13v5.095zm12.121 0v3.084H21.866v-6.167h10.112v3.084zm20.156 0v3.084H42.023v-6.167h10.111v3.084zM39.332 51.256c1.093.171 2.557.651 2.557.839 0 .091-.668.383-1.292.563-1.734.504-4.477.575-6.493.169-.686-.138-1.667-.468-1.888-.634-.128-.097-.128-.1 0-.196.39-.294 1.944-.704 3.177-.838.816-.088 3.118-.031 3.94.097zm-5.392 3.587c2.517.456 5.73.29 7.698-.395l.385-.134v1.726l-.202.144c-.728.519-2.882.938-4.82.938-1.94 0-4.094-.42-4.822-.938l-.201-.144v-1.718l.62.195c.34.107.944.254 1.342.326zm0 4.022c2.517.455 5.73.29 7.698-.395l.385-.134v1.726l-.202.143c-.728.52-2.882.939-4.82.939-1.94 0-4.094-.42-4.822-.939l-.201-.143v-1.718l.62.195c.34.107.944.254 1.342.326zm0 4.022c2.517.455 5.73.29 7.698-.396l.385-.134v1.726l-.202.143c-.728.52-2.882.938-4.82.938-1.94 0-4.094-.419-4.822-.938l-.201-.143v-1.718l.62.194c.34.108.944.255 1.342.327z" fill="#2B343D"/><path fill-rule="evenodd" clip-rule="evenodd" d="M19.857 43.045V32.856h14.13v10.189h-14.13zm12.121-2.011v-6.167H21.866v6.167h10.112z" fill="#EFC22B"/></svg>