<svg width="74" height="100" fill="none" xmlns="http://www.w3.org/2000/svg"><rect width="41.261" height="41.261" rx="5" transform="matrix(.866 .50003 .00003 1 2 29.791)" fill="#E9F0ED"/><path d="M33.089 11.764a7.808 7.808 0 017.822 0L68.09 27.488A7.841 7.841 0 0172 34.276v31.447a7.84 7.84 0 01-3.911 6.788L40.91 88.236a7.809 7.809 0 01-7.822 0L5.91 72.511A7.841 7.841 0 012 65.724V34.276a7.84 7.84 0 013.911-6.788L33.09 11.764z" stroke="#B9C7C2" stroke-width="3"/><path stroke="#B9C7C2" stroke-width="1.5" stroke-dasharray="4 4" d="M37.75 0v17.857m0 63.572v17.857"/><path stroke="#2B343D" stroke-width="3" d="M37.785 51.429v11.428"/><path fill-rule="evenodd" clip-rule="evenodd" d="M21.488 55.799V43.485h2.143V55.8h-2.143zM51.878 42.9c.591 0 1.071.48 1.071 1.07v1.962a1.071 1.071 0 01-2.143 0v-1.961c0-.592.48-1.072 1.072-1.072zm0 5.277c.591 0 1.071.48 1.071 1.071v.203a1.071 1.071 0 11-2.143 0v-.203c0-.591.48-1.071 1.072-1.071zm0 3.389c.591 0 1.071.48 1.071 1.072V54.6a1.071 1.071 0 01-2.143 0v-1.962c0-.592.48-1.072 1.072-1.072zM38.382 64.174l10.664-6.157 1.071 1.856-10.664 6.157-1.071-1.856zM23.833 39.675l10.664-6.157 1.071 1.856-10.663 6.157-1.072-1.856zm26.037 0l-10.664-6.157-1.071 1.856 10.663 6.157 1.072-1.856z" fill="#2B343D"/><path fill-rule="evenodd" clip-rule="evenodd" d="M38.493 47.297l10.664-6.157 1.072 1.856-10.664 6.157-1.072-1.856zm-3.41 0L24.419 41.14l-1.071 1.856 10.663 6.157 1.072-1.856zm0 16.877l-10.664-6.157-1.071 1.856L34.01 66.03l1.072-1.856z" fill="#2B343D"/><path fill-rule="evenodd" clip-rule="evenodd" d="M37 36.396a1.055 1.055 0 100-2.11 1.055 1.055 0 000 2.11zm0 2.143a3.198 3.198 0 10-.001-6.397 3.198 3.198 0 000 6.397z" fill="#EFC22B"/><path fill-rule="evenodd" clip-rule="evenodd" d="M37.001 50.672a1.055 1.055 0 100-2.111 1.055 1.055 0 000 2.11zm0 2.143a3.198 3.198 0 100-6.397 3.198 3.198 0 000 6.397z" fill="#2B343D"/><path fill-rule="evenodd" clip-rule="evenodd" d="M22.34 42.463a1.055 1.055 0 100-2.111 1.055 1.055 0 000 2.11zm0 2.143a3.198 3.198 0 100-6.397 3.198 3.198 0 000 6.397zm0 13.56a1.055 1.055 0 100-2.111 1.055 1.055 0 000 2.11zm0 2.143a3.198 3.198 0 100-6.397 3.198 3.198 0 000 6.397z" fill="#EFC22B"/><path fill-rule="evenodd" clip-rule="evenodd" d="M51.66 42.463a1.055 1.055 0 100-2.111 1.055 1.055 0 000 2.11zm0 2.143a3.198 3.198 0 100-6.397 3.198 3.198 0 000 6.397zm0 13.56a1.055 1.055 0 100-2.111 1.055 1.055 0 000 2.11zm0 2.143a3.198 3.198 0 100-6.397 3.198 3.198 0 000 6.397zM37 65.661a1.055 1.055 0 10-.001-2.11 1.055 1.055 0 000 2.11zm0 2.143a3.198 3.198 0 10-.001-6.397 3.198 3.198 0 000 6.397z" fill="#2B343D"/></svg>