<svg width="74" height="100" fill="none" xmlns="http://www.w3.org/2000/svg"><rect width="41.261" height="41.261" rx="5" transform="matrix(.866 .50003 .00003 1 2 29.791)" fill="#E9F0ED"/><path d="M33.089 11.764a7.808 7.808 0 017.822 0L68.09 27.488A7.841 7.841 0 0172 34.276v31.447a7.84 7.84 0 01-3.911 6.788L40.91 88.236a7.809 7.809 0 01-7.822 0L5.91 72.511A7.841 7.841 0 012 65.724V34.276a7.84 7.84 0 013.911-6.788L33.09 11.764z" stroke="#B9C7C2" stroke-width="3"/><path stroke="#B9C7C2" stroke-width="1.5" stroke-dasharray="4 4" d="M37.75 0v17.857m0 63.572v17.857"/><path fill-rule="evenodd" clip-rule="evenodd" d="M23.428 50v17.857h27.344V40.129l-3.994-3.993-3.994-3.993H23.428V50zm17.874-12.085l.018 3.68 3.68.017 3.679.018v24.134H25.52V34.235h15.764l.018 3.68zm3.959-.297l1.847 1.849h-3.731v-1.849c0-1.016.009-1.848.018-1.848.01 0 .85.832 1.866 1.848zm-13.393 1.886v3.175l1.029-.02 1.029-.018.018-3.157.018-3.156h-2.094v3.176zm-4.223-.997c-.019.05-.026 1-.016 2.112l.019 2.022h2.093v-4.186l-1.03-.019c-.792-.015-1.04.002-1.066.07zm8.408 2.041v2.127h2.093V38.42h-2.093v2.128zm-8.424 5.249l.019 1.029 8.388.018 8.388.017v-2.093H27.609l.02 1.029zm8.191 3.263c-2.373.449-4.326 1.946-5.35 4.1-.149.314-.357.854-.461 1.2-.177.583-.19.716-.19 1.883 0 1.152.016 1.313.192 1.953.726 2.647 2.555 4.473 5.186 5.177.612.164.806.182 1.903.182 1.096 0 1.29-.018 1.902-.182 2.63-.704 4.46-2.53 5.186-5.177.176-.64.192-.8.192-1.953 0-1.167-.013-1.3-.19-1.884-.228-.756-.63-1.62-1.02-2.195-.967-1.422-2.553-2.54-4.227-2.974-.881-.228-2.29-.287-3.123-.13zm2.459 2.159c1.88.395 3.31 1.743 3.857 3.633.134.463.16.714.157 1.53-.002.882-.021 1.03-.195 1.535-.486 1.405-1.542 2.58-2.847 3.166a5.315 5.315 0 01-4.288.007c-1.325-.596-2.371-1.756-2.861-3.173-.175-.504-.194-.653-.196-1.535-.002-.816.024-1.067.157-1.53.54-1.864 1.966-3.225 3.806-3.628.585-.129 1.81-.13 2.41-.005zm-.69 4.047l-1.22 1.22-.472-.47-.473-.468-.749.748-.749.75 1.203 1.202 1.203 1.203 1.97-1.97 1.97-1.97-.732-.733-.733-.733-1.218 1.22z" fill="#2B343D"/><path fill-rule="evenodd" clip-rule="evenodd" d="M35.82 49.06c-2.374.449-4.327 1.945-5.35 4.099-.15.315-.357.855-.462 1.2-.176.584-.19.717-.19 1.884 0 1.152.016 1.312.192 1.953.726 2.647 2.556 4.473 5.186 5.177.613.164.807.182 1.903.182s1.29-.018 1.903-.182c2.63-.704 4.46-2.53 5.186-5.177.176-.64.191-.8.191-1.953 0-1.167-.013-1.3-.19-1.884-.228-.756-.63-1.62-1.02-2.195-.966-1.423-2.553-2.54-4.226-2.974-.882-.229-2.292-.287-3.124-.13zm2.458 2.159c1.88.395 3.31 1.742 3.857 3.633.134.463.16.714.158 1.53-.003.882-.022 1.03-.196 1.535-.486 1.405-1.542 2.58-2.846 3.166a5.315 5.315 0 01-4.29.007c-1.324-.596-2.37-1.756-2.86-3.173-.174-.504-.193-.653-.196-1.535-.002-.816.024-1.067.158-1.53.539-1.864 1.966-3.225 3.805-3.628.585-.129 1.811-.131 2.41-.005zm-.69 4.046l-1.219 1.22-.473-.468-.473-.47-.748.75-.75.748 1.204 1.203 1.203 1.203 1.97-1.97 1.97-1.97-.733-.733-.732-.733-1.22 1.22z" fill="#EFC22B"/></svg>