<svg width="74" height="100" fill="none" xmlns="http://www.w3.org/2000/svg"><rect width="41.261" height="41.261" rx="5" transform="matrix(.866 .50003 .00003 1 2 29.791)" fill="#E9F0ED"/><path d="M33.089 11.764a7.808 7.808 0 017.822 0L68.09 27.488A7.841 7.841 0 0172 34.276v31.447a7.84 7.84 0 01-3.911 6.788L40.91 88.236a7.809 7.809 0 01-7.822 0L5.91 72.511A7.841 7.841 0 012 65.724V34.276a7.84 7.84 0 013.911-6.788L33.09 11.764z" stroke="#B9C7C2" stroke-width="3"/><path stroke="#B9C7C2" stroke-width="1.5" stroke-dasharray="4 4" d="M37.75 0v17.857m0 63.572v17.857"/><path fill-rule="evenodd" clip-rule="evenodd" d="M20.107 53.153c-.94-.542-.94-1.422 0-1.964l6.945-4.01c.94-.542 2.463-.542 3.403 0l6.945 4.01c.94.542.94 1.422 0 1.964l-6.945 4.01c-.94.542-2.463.542-3.403 0l-6.945-4.01zm2.63-.982l6.017 3.474 6.016-3.474-6.017-3.474-6.017 3.474z" fill="#2B343D"/><path fill-rule="evenodd" clip-rule="evenodd" d="M19.488 52.397c0-1.085.762-1.525 1.701-.982l6.945 4.01c.94.542 1.701 1.861 1.701 2.946v8.02c0 1.084-.761 1.524-1.7.981l-6.945-4.01c-.94-.542-1.701-1.861-1.701-2.946v-8.02zm2.165 1.786v6.947l6.017 3.474v-6.947l-6.017-3.474z" fill="#2B343D"/><path fill-rule="evenodd" clip-rule="evenodd" d="M27.588 58.37c0-1.084.761-2.403 1.701-2.946l6.945-4.01c.94-.542 1.7-.102 1.7.982v8.02c0 1.084-.761 2.404-1.7 2.946l-6.945 4.01c-.94.542-1.702.103-1.701-.982v-8.02zm2.165-.714v6.948l6.016-3.474v-6.948l-6.016 3.474z" fill="#2B343D"/><path fill-rule="evenodd" clip-rule="evenodd" d="M36.602 53.154c-.94-.542-.94-1.422 0-1.964l6.945-4.01c.939-.542 2.462-.542 3.402 0l6.945 4.01c.94.542.94 1.422 0 1.964l-6.945 4.01c-.94.542-2.463.542-3.402 0l-6.945-4.01zm2.629-.982l6.017 3.474 6.017-3.474-6.017-3.474-6.017 3.474z" fill="#2B343D"/><path fill-rule="evenodd" clip-rule="evenodd" d="M35.983 52.397c0-1.085.761-1.525 1.7-.982l6.945 4.01c.94.542 1.701 1.861 1.701 2.946v8.02c0 1.084-.761 1.524-1.7.981l-6.945-4.01c-.94-.542-1.701-1.861-1.701-2.946v-8.02zm2.165 1.786v6.947l6.017 3.474v-6.947l-6.017-3.474z" fill="#2B343D"/><path fill-rule="evenodd" clip-rule="evenodd" d="M44.082 58.371c0-1.084.762-2.404 1.701-2.946l6.945-4.01c.94-.542 1.7-.102 1.7.982v8.02c0 1.084-.761 2.404-1.7 2.946l-6.945 4.01c-.94.542-1.701.102-1.701-.982v-8.02zm2.165-.714v6.948l6.017-3.474v-6.948l-6.017 3.474z" fill="#2B343D"/><path fill-rule="evenodd" clip-rule="evenodd" d="M28.355 38.563c-.94-.542-.94-1.422 0-1.964l6.945-4.01c.94-.542 2.463-.542 3.403 0l6.945 4.01c.94.542.94 1.422 0 1.964l-6.945 4.01c-.94.542-2.463.542-3.403 0l-6.945-4.01zm2.63-.982l6.017 3.474 6.017-3.474-6.017-3.474-6.018 3.474z" fill="#EFC22B"/><path fill-rule="evenodd" clip-rule="evenodd" d="M27.736 37.806c0-1.085.762-1.524 1.701-.982l6.945 4.01c.94.542 1.701 1.861 1.701 2.946v8.02c0 1.084-.761 1.524-1.7.982l-6.945-4.01c-.94-.543-1.701-1.862-1.701-2.947v-8.019zm2.165 1.786v6.948l6.018 3.474v-6.948L29.9 39.592z" fill="#EFC22B"/><path fill-rule="evenodd" clip-rule="evenodd" d="M35.836 43.78c0-1.085.761-2.404 1.701-2.947l6.945-4.01c.94-.542 1.7-.102 1.7.983v8.019c0 1.084-.761 2.404-1.7 2.946l-6.945 4.01c-.94.542-1.701.103-1.701-.982v-8.02zM38 43.065v6.948l6.017-3.474v-6.948L38 43.065z" fill="#EFC22B"/></svg>