<svg width="74" height="100" fill="none" xmlns="http://www.w3.org/2000/svg"><rect width="41.261" height="41.261" rx="5" transform="matrix(.866 .50003 .00003 1 2 29.791)" fill="#E9F0ED"/><path d="M33.089 11.764a7.808 7.808 0 017.822 0L68.09 27.488A7.841 7.841 0 0172 34.276v31.447a7.84 7.84 0 01-3.911 6.788L40.91 88.236a7.809 7.809 0 01-7.822 0L5.91 72.511A7.841 7.841 0 012 65.724V34.276a7.84 7.84 0 013.911-6.788L33.09 11.764z" stroke="#B9C7C2" stroke-width="3"/><path stroke="#B9C7C2" stroke-width="1.5" stroke-dasharray="4 4" d="M37.75 0v17.857m0 63.572v17.857"/><path fill-rule="evenodd" clip-rule="evenodd" d="M19.857 50v17.142h34.286V32.856H19.857V50zm32.277-12.121v3.013H21.866v-6.027h30.268v3.014zm-28.259 0v1.004h12.12v-2.009h-12.12v1.005zm16.139 0v1.004h2.009v-2.009h-2.009v1.005zm4.017 0v1.004h2.01v-2.009h-2.01v1.005zm4.018 0v1.004h2.009v-2.009H48.05v1.005zm4.085 16.138v11.116H21.866V42.901h30.268v11.116zm-22.6-8.998c-2.768.223-4.876 1.07-5.482 2.2l-.143.27v13.058l.143.268c.534.996 2.127 1.737 4.49 2.086 1.105.163 3.756.163 4.86 0 2.37-.35 3.876-1.06 4.424-2.084l.145-.27v-13.06l-.145-.268c-.559-1.032-2.037-1.733-4.383-2.078-.672-.1-3.218-.18-3.91-.123zm3.771 2.134c1.093.17 2.557.65 2.557.837 0 .092-.669.383-1.296.565-1.072.31-1.937.405-3.66.4-1.637-.003-2.268-.071-3.448-.369-.54-.136-1.44-.508-1.44-.596 0-.026.203-.14.452-.255.692-.318 1.673-.534 3.231-.71.532-.06 2.95.026 3.604.128zm7.713.837v1.005h2.009v-2.009h-2.009v1.004zm4.018 0v1.005h4.018v-2.009h-4.018v1.004zm-18.871 2.306c.39.164 1.522.426 2.364.55 1.004.146 3.695.166 4.654.033.864-.119 1.773-.317 2.341-.51l.472-.16v1.722l-.201.143c-.111.08-.441.231-.733.338-2.36.86-6.718.764-8.649-.193l-.495-.245-.019-.888c-.01-.488-.006-.887.009-.887s.13.043.257.096zm14.853 1.712v1.005h8.036v-2.009h-8.036v1.004zm-14.853 2.306c.39.163 1.522.426 2.364.55 1.004.146 3.695.166 4.654.033.864-.119 1.773-.317 2.341-.51l.472-.161v1.724l-.201.143c-.111.08-.441.23-.733.338-2.36.86-6.718.764-8.649-.193l-.495-.245-.019-.888c-.01-.488-.006-.887.009-.887s.13.043.257.096zm14.853 1.712v1.005h8.036v-2.009h-8.036v1.004zm-14.853 2.306c.39.163 1.522.426 2.364.55 1.004.146 3.695.166 4.654.033.864-.12 1.773-.318 2.341-.51l.472-.161v1.724l-.201.143c-.111.079-.441.23-.733.338-2.36.86-6.718.764-8.649-.193l-.495-.245-.019-.888c-.01-.488-.006-.887.009-.887s.13.043.257.096zm14.853 1.712v1.004h8.036V59.04h-8.036v1.005z" fill="#2B343D"/><path fill-rule="evenodd" clip-rule="evenodd" d="M29.533 45.018c-2.768.224-4.875 1.07-5.481 2.202l-.144.268v13.058l.144.268c.534.997 2.127 1.737 4.489 2.086 1.106.164 3.756.164 4.86 0 2.37-.35 3.876-1.059 4.425-2.083l.145-.271V47.488l-.145-.268c-.56-1.032-2.038-1.733-4.383-2.078-.673-.1-3.219-.18-3.91-.124zm3.772 2.135c1.092.17 2.556.65 2.556.837 0 .092-.668.383-1.295.565-1.073.31-1.937.405-3.66.4-1.637-.003-2.269-.071-3.448-.369-.541-.137-1.44-.509-1.44-.596 0-.026.203-.14.452-.255.691-.318 1.672-.534 3.23-.71.532-.06 2.95.025 3.605.128zm-7.14 3.143c.39.163 1.522.426 2.364.55 1.003.146 3.695.166 4.654.033.863-.119 1.773-.317 2.34-.51l.472-.161v1.724l-.201.143c-.11.08-.44.231-.733.338-2.36.86-6.717.764-8.649-.193l-.495-.245-.019-.888c-.01-.488-.006-.887.009-.887s.13.043.257.096zm0 4.018c.39.163 1.522.426 2.364.55 1.003.146 3.695.166 4.654.033.863-.12 1.773-.317 2.34-.51l.472-.161v1.724l-.201.143c-.11.079-.44.23-.733.338-2.36.86-6.717.764-8.649-.193l-.495-.245-.019-.888c-.01-.488-.006-.887.009-.887s.13.043.257.096zm0 4.018c.39.163 1.522.426 2.364.55 1.003.146 3.695.165 4.654.033.863-.12 1.773-.318 2.34-.51l.472-.161v1.724l-.201.143c-.11.079-.44.23-.733.337-2.36.861-6.717.764-8.649-.192l-.495-.246-.019-.887c-.01-.488-.006-.887.009-.887s.13.043.257.096z" fill="#EFC22B"/></svg>