<svg width="74" height="100" fill="none" xmlns="http://www.w3.org/2000/svg"><rect width="41.261" height="41.261" rx="5" transform="matrix(.866 .50003 .00003 1 2 29.791)" fill="#E9F0ED"/><path d="M33.089 11.764a7.808 7.808 0 017.822 0L68.09 27.488A7.841 7.841 0 0172 34.276v31.447a7.84 7.84 0 01-3.911 6.788L40.91 88.236a7.809 7.809 0 01-7.822 0L5.91 72.511A7.841 7.841 0 012 65.724V34.276a7.84 7.84 0 013.911-6.788L33.09 11.764z" stroke="#B9C7C2" stroke-width="3"/><path stroke="#B9C7C2" stroke-width="1.5" stroke-dasharray="4 4" d="M37.75 0v17.857m0 63.572v17.857"/><path fill-rule="evenodd" clip-rule="evenodd" d="M36.288 32.235c-.876.219-1.719.89-2.08 1.656-.857 1.82.147 3.955 2.08 4.422.334.08.34.086.14.128-1.31.275-2.127.65-2.849 1.306-1.206 1.096-1.79 2.482-1.79 4.246v.77h10.464v-.77c0-2.341-1.109-4.168-3.092-5.094-.378-.176-.797-.3-1.547-.458-.2-.042-.193-.048.14-.126 1.56-.367 2.62-1.956 2.352-3.525a3.02 3.02 0 00-.884-1.718c-.787-.79-1.878-1.101-2.934-.837zm1.223 2.134c.31.158.556.56.556.906 0 .533-.516 1.047-1.051 1.047-.325 0-.756-.272-.91-.573-.257-.505-.095-1.056.398-1.355.334-.202.645-.21 1.007-.025zm-9.716 2.025c-1.309.22-2.618 1.057-3.403 2.175-.664.945-.976 2.01-.976 3.331v.77h2.093v-.659c0-1.186.237-1.858.91-2.577.692-.74 1.403-1.02 2.593-1.02h.683v-2.092l-.785.008c-.431.004-.933.033-1.115.064zm16.551.965v1.056h.684c1.19 0 1.9.279 2.593 1.02.672.718.91 1.39.91 2.576v.66h2.093v-.77c0-2.29-1.049-4.07-2.965-5.039-.711-.358-1.262-.482-2.32-.522l-.995-.038v1.056zm-6.605 3.253c.22.057.53.17.69.252.55.28 1.334 1.153 1.482 1.65l.048.157h-5.88l.047-.157c.15-.498.934-1.37 1.485-1.651a3.013 3.013 0 012.128-.251zm-14.011 4.25a2.981 2.981 0 00-1.47.84c-.955.951-1.19 2.335-.61 3.575.367.783 1.332 1.544 2.117 1.67.155.024.272.054.26.066a5.67 5.67 0 01-.578.137c-1.96.403-3.469 1.768-4.081 3.695-.12.374-.164.72-.19 1.483l-.035.994h10.552v-.77c0-1.654-.459-2.836-1.524-3.926a5.043 5.043 0 00-2.703-1.478 5.536 5.536 0 01-.57-.135c-.012-.012.11-.042.269-.068.769-.123 1.63-.783 2.04-1.565.662-1.259.452-2.68-.544-3.68-.787-.79-1.877-1.101-2.933-.837zm25.116 0a2.981 2.981 0 00-1.47.84c-.954.951-1.19 2.335-.61 3.575.368.783 1.333 1.544 2.118 1.67.155.024.271.054.26.066a5.67 5.67 0 01-.579.137 5.196 5.196 0 00-2.675 1.437c-1.055 1.055-1.544 2.31-1.544 3.964v.77h10.555l-.038-.993c-.028-.754-.075-1.113-.192-1.483-.613-1.938-2.105-3.29-4.078-3.695a5.668 5.668 0 01-.578-.137c-.012-.012.109-.042.268-.068.77-.123 1.63-.783 2.04-1.565.663-1.259.453-2.68-.543-3.68-.787-.79-1.878-1.101-2.934-.837zm-23.893 2.135c.31.158.556.56.556.906 0 .533-.516 1.047-1.052 1.047-.324 0-.755-.272-.909-.573-.257-.505-.096-1.056.398-1.355.334-.202.645-.21 1.007-.025zm25.116 0c.31.158.557.56.557.906 0 .533-.516 1.047-1.052 1.047-.325 0-.756-.272-.91-.573-.257-.505-.095-1.056.398-1.355.334-.202.645-.21 1.007-.025zm-24.857 6.238c.537.143.948.361 1.335.709.344.309.72.834.808 1.128l.047.157h-2.97c-1.633 0-2.97-.017-2.97-.038 0-.15.367-.693.708-1.048.807-.84 1.98-1.19 3.042-.908zm25.117 0c.572.152.97.375 1.425.795.358.332.822.977.825 1.146 0 .03-1.336.053-2.97.053h-2.97l.047-.157c.087-.29.463-.818.796-1.117.779-.699 1.88-.977 2.847-.72zm-14.04 2.093a2.98 2.98 0 00-1.47.84c-1.239 1.233-1.238 3.162.001 4.401 1.803 1.803 4.85.821 5.283-1.702.17-.99-.149-1.965-.881-2.701-.787-.79-1.878-1.102-2.934-.838zm1.222 2.134c.31.158.556.56.556.906 0 .534-.516 1.047-1.051 1.047-.325 0-.756-.271-.91-.572-.257-.505-.095-1.057.398-1.355.334-.203.645-.21 1.007-.026zm-14.095 2.723c0 1.966.755 3.534 2.198 4.565.987.706 1.726.945 3.087.996l.994.037v-2.112h-.683c-1.19 0-1.9-.28-2.593-1.02-.673-.719-.91-1.39-.91-2.577v-.66h-2.093v.771zm25.117-.11c0 1.185-.238 1.857-.91 2.576-.693.74-1.403 1.02-2.593 1.02h-.684v2.112l.995-.037c1.36-.051 2.1-.29 3.087-.996 1.443-1.031 2.198-2.6 2.198-4.565v-.77h-2.093v.66zM35.94 61.693c-.978.21-1.825.67-2.572 1.401-1.084 1.06-1.58 2.313-1.58 3.992v.77h10.465v-.77c0-1.273-.257-2.2-.871-3.137-.556-.85-1.483-1.618-2.397-1.99a5.498 5.498 0 00-3.045-.266zm1.83 2.076c.538.143.949.361 1.335.708.344.31.72.835.808 1.129l.048.157h-5.88l.047-.157c.087-.29.463-.818.796-1.117.779-.699 1.88-.977 2.846-.72z" fill="#2B343D"/><path fill-rule="evenodd" clip-rule="evenodd" d="M36.287 32.235c-.876.219-1.719.89-2.08 1.656-.857 1.82.147 3.955 2.08 4.422.334.08.34.086.14.128-1.31.275-2.127.65-2.85 1.306-1.206 1.096-1.79 2.482-1.79 4.246v.77h10.465v-.77c0-2.341-1.109-4.168-3.092-5.094-.378-.176-.797-.3-1.547-.458-.2-.042-.193-.048.14-.126 1.56-.367 2.62-1.956 2.352-3.525a3.02 3.02 0 00-.884-1.718c-.787-.79-1.878-1.101-2.934-.837zm1.223 2.134c.31.158.556.56.556.906 0 .533-.516 1.047-1.051 1.047-.325 0-.756-.272-.91-.573-.257-.505-.095-1.056.398-1.355.334-.202.645-.21 1.007-.025zm.23 6.243c.22.057.53.17.69.252.55.28 1.333 1.153 1.482 1.65l.047.157H34.08l.047-.157c.15-.498.933-1.37 1.485-1.651a3.013 3.013 0 012.128-.251z" fill="#EFC22B"/></svg>