<svg width="88" height="99" fill="none" xmlns="http://www.w3.org/2000/svg"><path d="M39.083 1.323a9.797 9.797 0 019.834 0l34.166 19.812A9.884 9.884 0 0188 29.688v39.624a9.884 9.884 0 01-4.917 8.553L48.917 97.677a9.796 9.796 0 01-9.834 0L4.917 77.865A9.884 9.884 0 010 69.312V29.688a9.884 9.884 0 014.917-8.553L39.083 1.323z" fill="#E9F0ED"/><path d="M41.989 29.541a4.008 4.008 0 014.022 0l13.978 8.105a4.044 4.044 0 012.011 3.5v16.209a4.044 4.044 0 01-2.011 3.499L46.01 68.959a4.008 4.008 0 01-4.022 0L28.01 60.854a4.044 4.044 0 01-2.011-3.5V41.146c0-1.443.767-2.777 2.011-3.499l13.978-8.105z" fill="#EFC22B"/><path fill-rule="evenodd" clip-rule="evenodd" d="M32.117 27.07c-2.33.436-4.265 1.941-5.229 4.07-.448.99-.538 1.478-.588 3.197l-.046 1.606h-.459c-.595 0-1.149.29-1.496.784-.23.327-.264.45-.264.975 0 .526.033.647.264.974.331.47.812.722 1.467.77l.51.036v4.289h-.33c-.515.002-.965.161-1.312.466-1.26 1.107-.523 3.053 1.155 3.053h.487v4.399h-.487c-1.678 0-2.414 1.945-1.155 3.052.347.305.797.464 1.312.465h.33v4.29l-.51.037c-.655.047-1.136.3-1.467.769-.23.327-.264.448-.264.974 0 .525.033.648.264.975.348.494.9.784 1.497.784h.458l.046 1.606c.05 1.719.14 2.207.588 3.197.726 1.603 2.247 3.076 3.76 3.643 1.38.517.285.48 14.559.507 14.578.028 13.727.06 15-.573.794-.395 1.75-1.33 2.157-2.107.486-.926.633-1.7.63-3.318-.001-1.187-.027-1.472-.164-1.767-.6-1.304-2.463-1.356-3.157-.088-.112.204-.155.601-.19 1.766-.043 1.446-.053 1.515-.28 1.859a1.69 1.69 0 01-.624.544l-.388.188-12.86-.023-12.862-.024-.587-.278c-.817-.388-1.325-.886-1.72-1.687l-.328-.665-.032-1.377-.03-1.378.624-.044c.79-.057 1.221-.33 1.543-.975.288-.579.282-.982-.022-1.566-.315-.603-.928-.958-1.654-.958h-.474v-4.285l.57-.053c.67-.063.977-.205 1.345-.625.417-.476.548-1.075.358-1.643-.263-.786-.888-1.218-1.767-1.221l-.506-.002V47.29l.506-.001c.879-.003 1.504-.435 1.767-1.22.19-.57.06-1.168-.358-1.644-.368-.42-.674-.562-1.346-.625l-.569-.053V39.46h.474c.726 0 1.339-.355 1.654-.959.306-.587.31-.986.014-1.58-.322-.647-.73-.902-1.536-.96l-.623-.044.032-1.373c.03-1.326.041-1.393.309-1.96.385-.818.883-1.328 1.683-1.724l.664-.328h25.938l.356.236c.214.142.43.39.542.622l.187.385v24.716l.218.435c.649 1.294 2.441 1.302 3.071.013l.228-.467-.024-12.706-.023-12.706-.23-.593c-.626-1.61-1.614-2.597-3.23-3.227l-.582-.227L45.734 27c-7.835-.008-13.355.02-13.617.07zm8.722 10.24a5.142 5.142 0 00-.923.336c-.738.375-3.39 2.391-4.025 3.061-.662.697-1.236 1.685-1.489 2.563-.474 1.644-.235 3.673.6 5.073.159.267 2.057 2.9 4.217 5.852 2.619 3.577 4.11 5.537 4.475 5.88 1.007.949 2.254 1.535 3.68 1.73 1.282.177 2.91-.156 4.024-.822.827-.494 3.185-2.301 3.661-2.805a4.627 4.627 0 00.81-5.093c-.253-.536-.954-1.547-1.868-2.697-.506-.636-1.357-1.252-2.117-1.532-.427-.158-.72-.195-1.538-.199-1.16-.004-1.569.105-2.495.664-.32.193-.616.331-.657.306-.08-.049-1.416-1.884-1.416-1.944 0-.02.31-.344.689-.72 1.023-1.017 1.417-1.954 1.417-3.368 0-1.35-.251-1.939-1.605-3.754-1.038-1.391-1.436-1.769-2.302-2.181-1.03-.49-2.076-.607-3.138-.35zm1.666 3.557c.156.096.64.652 1.076 1.236.716.961.791 1.1.791 1.45 0 .212-.046.488-.102.612-.057.124-.602.599-1.211 1.055-1.286.962-1.498 1.248-1.498 2.02 0 .274.058.61.13.748.17.33 3.594 5.078 3.896 5.404.286.309.845.579 1.201.58.52.004.894-.183 1.96-.976 1.678-1.245 1.938-1.211 3.141.417.98 1.328 1.053 1.524.778 2.105-.17.358-2.621 2.233-3.366 2.575-1.04.476-2.434.207-3.239-.628-.546-.566-7.923-10.678-8.157-11.181-.403-.867-.243-2.195.36-2.987.229-.3 2.724-2.235 3.208-2.488.315-.165.703-.143 1.032.058z" fill="#2B343D"/></svg>