<svg width="88" height="99" fill="none" xmlns="http://www.w3.org/2000/svg"><path d="M39.083 1.323a9.797 9.797 0 019.834 0l34.166 19.812A9.884 9.884 0 0188 29.688v39.624a9.884 9.884 0 01-4.917 8.553L48.917 97.677a9.796 9.796 0 01-9.834 0L4.917 77.865A9.884 9.884 0 010 69.312V29.688a9.884 9.884 0 014.917-8.553L39.083 1.323z" fill="#E9F0ED"/><path d="M41.989 29.541a4.008 4.008 0 014.022 0l13.978 8.105a4.044 4.044 0 012.011 3.5v16.209a4.044 4.044 0 01-2.011 3.499L46.01 68.959a4.008 4.008 0 01-4.022 0L28.01 60.854a4.044 4.044 0 01-2.011-3.5V41.146c0-1.443.767-2.777 2.011-3.499l13.978-8.105z" fill="#EFC22B"/><path fill-rule="evenodd" clip-rule="evenodd" d="M53.75 25.068c-2.141.229-4.408 1.086-6.149 2.326-.936.667-2.35 2.055-2.935 2.883l-.444.628-9.013.03-9.013.03-.845.261a7.724 7.724 0 00-5.089 5.09L20 37.16v29.667l.262.845a7.724 7.724 0 005.09 5.089l.844.262h30.418l.845-.262a7.716 7.716 0 005.087-5.09l.26-.844.002-3.434.002-3.433-.252-.38c-.387-.587-.846-.827-1.578-.827-.732 0-1.191.24-1.58.826l-.251.38-.05 3.2c-.028 1.767-.092 3.292-.143 3.408-.085.194-.674-.372-7.578-7.276l-7.486-7.487 1.532-1.53 1.532-1.529 1.543 1.712c2.053 2.276 3.055 3.48 3.961 4.756 1.164 1.64 1.382 1.789 2.605 1.789 1.2 0 1.476-.182 2.486-1.63.827-1.185 1.98-2.588 3.671-4.46 3.367-3.731 4.51-5.24 5.437-7.18 2.455-5.135 1.486-10.98-2.475-14.92-2.751-2.737-6.678-4.146-10.433-3.744zm2.848 3.835a9.234 9.234 0 017.528 7.529c.474 2.716-.293 5.316-2.39 8.107-.402.537-1.713 2.075-2.912 3.417-1.2 1.343-2.522 2.864-2.939 3.38-.417.517-.786.94-.82.94-.034 0-.403-.423-.82-.94-.417-.516-1.74-2.037-2.939-3.38-1.199-1.342-2.51-2.88-2.913-3.417-2.097-2.791-2.863-5.39-2.39-8.107.874-5.005 5.644-8.395 10.595-7.529zm-2.8 3.72c-.259.048-.829.26-1.268.471-1.065.513-2.068 1.496-2.568 2.517-1.09 2.226-.701 4.707 1.008 6.429 1.041 1.049 2.21 1.599 3.626 1.705.648.049.744.032 1.217-.218.419-.221.562-.365.783-.784.231-.439.263-.586.22-1.016-.096-.97-.732-1.571-1.8-1.704-.873-.108-1.373-.428-1.694-1.082-.215-.44-.245-.596-.196-1.01.201-1.7 2.393-2.258 3.37-.858.176.254.284.567.345 1.007.123.887.436 1.39 1.057 1.7.63.313 1.057.309 1.683-.018 1.182-.618 1.338-2.233.399-4.151-.25-.512-.54-.9-1.057-1.418-1.374-1.378-3.191-1.934-5.126-1.57zm-11.313 2.12c0 .038-.07.408-.157.821-.242 1.164-.22 3.762.042 4.949a14.82 14.82 0 001.845 4.58l.425.704-10.368 10.37C28.57 61.871 23.87 66.504 23.83 66.463c-.117-.117-.143-28.18-.027-28.74.223-1.076.982-2.125 1.864-2.575.914-.466.857-.463 9.096-.47 4.247-.003 7.722.026 7.722.065zM55.91 69.244c0 .086-28.673.096-29.101.01-.302-.06-.265-.1 7.052-7.417l7.356-7.356 7.346 7.346c4.04 4.04 7.347 7.378 7.347 7.417z" fill="#2B343D"/></svg>