<svg width="88" height="99" fill="none" xmlns="http://www.w3.org/2000/svg"><path d="M39.083 1.323a9.797 9.797 0 019.834 0l34.166 19.812A9.884 9.884 0 0188 29.688v39.624a9.884 9.884 0 01-4.917 8.553L48.917 97.677a9.796 9.796 0 01-9.834 0L4.917 77.865A9.884 9.884 0 010 69.312V29.688a9.884 9.884 0 014.917-8.553L39.083 1.323z" fill="#E9F0ED"/><path d="M41.989 29.541a4.008 4.008 0 014.022 0l13.978 8.105a4.044 4.044 0 012.011 3.5v16.209a4.044 4.044 0 01-2.011 3.499L46.01 68.959a4.008 4.008 0 01-4.022 0L28.01 60.854a4.044 4.044 0 01-2.011-3.5V41.146c0-1.443.767-2.777 2.011-3.499l13.978-8.105z" fill="#EFC22B"/><path fill-rule="evenodd" clip-rule="evenodd" d="M43.362 26.067c-.422.13-1.02.75-1.14 1.185-.055.197-.1.855-.1 1.462s-.019 1.104-.04 1.104c-.264 0-1.733.243-2.544.421-5.7 1.252-10.693 5.078-13.486 10.334-1.07 2.013-1.848 4.456-2.15 6.747-.054.404-.098.748-.098.766 0 .017-.584.045-1.298.063-1.225.03-1.32.047-1.68.285-.588.39-.826.847-.826 1.586 0 .513.043.682.252.999.139.209.413.48.61.603.324.201.487.226 1.65.256.711.017 1.292.046 1.292.063 0 .255.247 1.737.422 2.534 1.251 5.7 5.078 10.693 10.334 13.486 2.012 1.07 4.455 1.849 6.746 2.151.404.053.749.097.766.097.017 0 .046.581.064 1.292.03 1.164.054 1.327.255 1.65.123.197.395.472.604.61.317.21.485.252 1.005.252.52 0 .688-.042 1.005-.252.21-.138.481-.413.604-.61.2-.323.226-.486.255-1.639l.032-1.28 1.048-.158a20.632 20.632 0 005.949-1.84c1.26-.61 1.534-.866 1.736-1.62.217-.812-.19-1.734-.925-2.097-.667-.33-1.242-.249-2.518.353-1.684.793-2.792 1.13-4.992 1.52l-.296.053-.033-1.146c-.038-1.318-.18-1.665-.86-2.116-.317-.21-.485-.252-1.005-.252-.52 0-.688.042-1.005.252-.681.451-.822.798-.86 2.123-.03 1.017-.052 1.15-.188 1.112a7.103 7.103 0 00-.624-.104 16.34 16.34 0 01-1.382-.29c-3.918-.983-7.374-3.417-9.659-6.803-1.4-2.075-2.188-4.152-2.663-7.012l-.049-.296 1.2-.033c1.117-.03 1.227-.05 1.582-.285.586-.388.826-.847.826-1.58 0-.732-.24-1.191-.826-1.58-.355-.234-.464-.254-1.589-.284-1.067-.03-1.203-.051-1.166-.188a6.86 6.86 0 00.104-.625c.317-2.412 1.625-5.388 3.323-7.561.515-.66 1.876-2.034 2.55-2.575 2.444-1.964 4.85-3.006 8.233-3.567l.296-.05.032 1.194c.03 1.06.058 1.233.256 1.552.123.197.395.472.604.61.317.21.485.253 1.005.253.52 0 .688-.042 1.005-.252.21-.139.481-.414.604-.611.198-.319.226-.492.256-1.56.029-1.06.05-1.196.188-1.158.085.023.366.07.624.104.258.034.88.165 1.382.29 3.918.983 7.374 3.417 9.659 6.803 1.4 2.075 2.188 4.152 2.663 7.012l.049.296-1.2.033c-1.117.03-1.227.05-1.582.285-.586.388-.826.847-.826 1.58 0 .732.24 1.191.826 1.58.355.234.464.253 1.591.284l1.21.033-.05.249a73.63 73.63 0 00-.153.86c-.253 1.477-.588 2.472-1.439 4.273-.65 1.377-.734 1.931-.398 2.612.364.736 1.285 1.142 2.098.925.766-.205 1-.465 1.706-1.892.965-1.951 1.693-4.398 1.933-6.497l.061-.531 1.286-.032c1.158-.03 1.322-.055 1.644-.256.198-.122.472-.394.611-.603.21-.318.252-.486.252-1.005 0-.52-.042-.688-.252-1.006a2.405 2.405 0 00-.61-.603c-.324-.201-.487-.226-1.65-.256-.711-.018-1.292-.046-1.292-.063 0-.255-.247-1.737-.422-2.534-1.251-5.7-5.078-10.693-10.334-13.486-2.012-1.07-4.455-1.849-6.746-2.151a40.569 40.569 0 00-.766-.097c-.017 0-.046-.585-.064-1.299-.03-1.224-.047-1.32-.284-1.68a2.316 2.316 0 00-.586-.586c-.383-.237-1.171-.327-1.632-.186zm-1.24 15.129a9.822 9.822 0 00-3.147 1.29c-.843.545-2.051 1.754-2.596 2.596-.908 1.405-1.49 3.331-1.49 4.931s.582 3.527 1.49 4.932c.545.842 1.753 2.05 2.596 2.595 1.405.909 3.33 1.491 4.931 1.491 1.6 0 3.526-.582 4.932-1.49.842-.545 2.05-1.754 2.595-2.596.908-1.405 1.49-3.331 1.49-4.931s-.582-3.527-1.49-4.932c-.545-.842-1.753-2.05-2.595-2.595-1.996-1.29-4.456-1.764-6.717-1.291zm3.486 3.862c.887.323 1.39.643 2.032 1.291 1.019 1.028 1.477 2.165 1.477 3.665 0 1.517-.463 2.648-1.513 3.698-1.05 1.05-2.18 1.512-3.698 1.512-1.517 0-2.648-.462-3.698-1.512-1.05-1.05-1.512-2.181-1.512-3.699 0-1.5.458-2.636 1.476-3.664a5.33 5.33 0 012.748-1.507c.66-.142 2.002-.035 2.688.216z" fill="#2B343D"/></svg>